<svg width="10" height="18" viewBox="0 0 10 18" fill="none" xmlns="http://www.w3.org/2000/svg">
<path fill-rule="evenodd" clip-rule="evenodd" d="M0.32 8.19162L8.10667 0.323353C8.56 -0.107784 9.25333 -0.107784 9.68 0.323353C10.1067 0.754491 10.1067 1.45509 9.68 1.91317L2.66667 9L9.68 16.0868C10.1067 16.518 10.1067 17.2455 9.68 17.6766C9.25333 18.1078 8.56 18.1078 8.10667 17.6766L0.32 9.78144C-0.106667 9.3503 -0.106667 8.6497 0.32 8.19162Z" fill="white"/>
<mask id="mask0_325_285" style="mask-type:alpha" maskUnits="userSpaceOnUse" x="0" y="0" width="10" height="18">
<path fill-rule="evenodd" clip-rule="evenodd" d="M0.32 8.19162L8.10667 0.323353C8.56 -0.107784 9.25333 -0.107784 9.68 0.323353C10.1067 0.754491 10.1067 1.45509 9.68 1.91317L2.66667 9L9.68 16.0868C10.1067 16.518 10.1067 17.2455 9.68 17.6766C9.25333 18.1078 8.56 18.1078 8.10667 17.6766L0.32 9.78144C-0.106667 9.3503 -0.106667 8.6497 0.32 8.19162Z" fill="white"/>
</mask>
<g mask="url(#mask0_325_285)">
<rect x="-5.05115" y="-1" width="20" height="20" fill="#FF6200"/>
</g>
</svg>
