<svg width="500" height="487" viewBox="0 0 500 487" fill="none" xmlns="http://www.w3.org/2000/svg">
<g id="19">
<path id="3" fill-rule="evenodd" clip-rule="evenodd" d="M455.956 472.414H44.3867C27.2271 472.414 13.3249 458.08 13.3249 440.395V129.281C13.3249 111.587 27.2271 97.2615 44.3867 97.2615H455.956C473.107 97.2615 487.009 111.587 487.009 129.281V440.395C487.009 458.08 473.107 472.414 455.956 472.414Z" stroke="#595959" stroke-width="1.55676" stroke-linecap="square"/>
<path id="5" d="M179.755 97.2573V40.8868C179.755 25.6534 192.264 13.3123 207.686 13.3123H292.649C308.071 13.3123 320.58 25.6534 320.58 40.8868V48.4951" stroke="#595959" stroke-width="1.55676" stroke-linecap="square"/>
<path id="7" d="M13.3249 184.556H435.8" stroke="#595959" stroke-width="1.55676" stroke-linecap="square"/>
<path id="9" fill-rule="evenodd" clip-rule="evenodd" d="M320.412 310.268H279.888V268.079H232.905V310.268H192.389V359.191H232.905V401.389H279.888V359.191H320.412V310.268Z" fill="#A0D9E3" stroke="#595959" stroke-width="1.55676" stroke-linecap="square"/>
<path id="11" d="M77.3348 249.442H90.137" stroke="#595959" stroke-width="1.55676" stroke-linecap="square"/>
<path id="13" d="M77.3348 413.426H90.137" stroke="#595959" stroke-width="1.55676" stroke-linecap="square"/>
<path id="15" d="M422.999 249.442H435.802" stroke="#595959" stroke-width="1.55676" stroke-linecap="square"/>
<path id="17" d="M422.999 413.426H435.802" stroke="#595959" stroke-width="1.55676" stroke-linecap="square"/>
</g>
</svg>
