<svg width="500" height="306" viewBox="0 0 500 306" fill="none" xmlns="http://www.w3.org/2000/svg">
<g id="Group">
<path id="Shape" fill-rule="evenodd" clip-rule="evenodd" d="M478.413 16.013H496.404V133.054L352.166 205.167C352.248 205.969 352.287 206.762 352.287 207.568C352.287 220.95 341.544 231.822 328.236 232.134C328.084 245.321 317.403 256.009 304.217 256.177C304.049 269.356 293.376 280.029 280.197 280.197C280.029 293.477 269.188 304.248 255.865 304.248H254.383C248.441 304.248 242.717 302.078 238.272 298.165L231.181 291.902C227.056 294.682 222.15 296.241 217.146 296.241C203.67 296.241 192.723 285.498 192.246 272.132C179.185 271.671 168.688 261.174 168.227 248.112C155.165 247.651 144.669 237.154 144.207 224.093C131.091 223.631 120.563 213.068 120.168 199.94L96.0236 185.448L94.1079 192.157H78.7673L0 165.905V0H26.1893L130.701 59.8645L126.698 75.2587C126.698 75.2587 182 62.4215 198.718 62.4215C215.239 64.8684 319.086 94.306 319.086 94.306L478.413 16.013ZM138.738 192.845C137.065 194.518 136.111 196.832 136.111 199.194C136.111 204.143 140.138 208.17 145.087 208.17C147.448 208.17 149.763 207.216 151.436 205.542L165.51 191.468C167.183 189.795 168.137 187.481 168.137 185.12C168.137 180.17 164.11 176.144 159.161 176.144C156.8 176.144 154.485 177.097 152.812 178.771L138.738 192.845ZM160.13 223.213C160.13 220.852 161.084 218.537 162.758 216.864L176.832 202.79C178.505 201.117 180.819 200.163 183.181 200.163C188.13 200.163 192.157 204.19 192.157 209.139C192.157 211.5 191.203 213.815 189.529 215.488L175.455 229.562C173.782 231.235 171.468 232.189 169.107 232.189C164.157 232.189 160.13 228.162 160.13 223.213ZM186.777 240.884C185.104 242.557 184.15 244.871 184.15 247.233C184.15 252.182 188.177 256.209 193.126 256.209C195.487 256.209 197.802 255.255 199.475 253.582L213.549 239.508C215.222 237.834 216.176 235.52 216.176 233.159C216.176 228.209 212.149 224.183 207.2 224.183C204.839 224.183 202.524 225.137 200.851 226.81L186.777 240.884ZM217.146 280.228C212.196 280.228 208.17 276.202 208.17 271.252C208.17 268.891 209.124 266.577 210.797 264.903L224.871 250.829C226.544 249.156 228.858 248.202 231.22 248.202C236.169 248.202 240.196 252.229 240.196 257.178C240.196 259.54 239.242 261.854 237.569 263.527L223.495 277.601C221.821 279.274 219.507 280.228 217.146 280.228ZM254.383 288.235H255.865C260.47 288.235 264.215 284.49 264.215 279.884C264.215 277.394 263.117 275.056 261.213 273.469L253.933 267.409C252.702 270.15 251.037 272.703 248.89 274.849L242.878 280.862L248.867 286.143C250.388 287.492 252.342 288.235 254.383 288.235ZM327.665 216.176H326.281C324.272 216.176 322.309 215.465 320.773 214.174L277.355 177.993L267.097 190.3L309.26 225.43C311.156 227.017 312.254 229.355 312.254 231.845C312.254 236.45 308.509 240.196 303.904 240.196H302.156C300.213 240.196 298.313 239.508 296.816 238.257L253.328 202.02L243.069 214.327L285.232 249.461C287.136 251.037 288.235 253.374 288.235 255.865C288.235 260.47 284.49 264.215 279.884 264.215C276.812 264.215 273.817 263.125 271.459 261.166L253.589 246.271C249.653 238.225 241.564 232.615 232.091 232.279C231.63 219.218 221.133 208.721 208.072 208.26C207.611 195.198 197.114 184.701 184.052 184.24C183.583 170.874 172.637 160.13 159.161 160.13C152.581 160.13 146.143 162.797 141.49 167.449L127.416 181.523C126.636 182.304 125.98 183.182 125.323 184.061L125.323 184.061L125.172 184.263L100.578 169.505L122.139 94.0454L176.19 82.0278C190.37 78.8572 205.32 79.5453 219.147 83.9708L230.942 87.7434L190.956 107.736C181.82 112.314 176.144 121.505 176.144 131.725V133.308C176.144 148.097 188.177 160.13 202.966 160.13C207.826 160.13 212.607 158.809 216.763 156.303L246.576 138.425C252.565 134.836 260.603 135.622 265.775 140.274L333.424 201.156C335.234 202.798 336.274 205.128 336.274 207.568C336.274 212.318 332.415 216.176 327.665 216.176ZM345.504 190.605L480.391 123.155V33.066L330.246 112.091L318.06 111.786L267.746 97.4153C259.508 95.0462 250.435 95.9024 242.792 99.7297L198.13 122.06C194.448 123.902 192.157 127.6 192.157 131.725V133.308C192.157 139.274 197 144.117 202.966 144.117C204.921 144.117 206.833 143.59 208.506 142.581L238.331 124.695C243.351 121.685 249.082 120.098 254.919 120.098C262.902 120.098 270.564 123.038 276.491 128.386L344.128 189.267C344.609 189.698 345.066 190.139 345.504 190.605Z" fill="#595959"/>
<path id="Path" d="M16.014 16.0129H21.8508L79.4328 49.5989L50.3779 165.815L16.014 154.356V16.0129Z" fill="#A0D9E3"/>
<path id="Path_2" d="M81.3624 176.144L65.6035 170.893L93.8296 58.0005L112.091 68.6498V70.9368L82.0348 176.144H81.3624Z" fill="#A0D9E3"/>
</g>
</svg>
