<svg width="500" height="462" viewBox="0 0 500 462" fill="none" xmlns="http://www.w3.org/2000/svg">
<g id="vr-glasses">
<path id="Rectangle" fill-rule="evenodd" clip-rule="evenodd" d="M494.472 120.221C494.472 92.7468 472.2 70.4745 444.726 70.4745H325.887C306.807 70.4745 291.34 85.9414 291.34 105.021V124.551C291.34 124.551 332.256 120.579 332.256 132.381C332.256 136.826 332.152 173.954 323.448 185.699C316.743 194.746 291.34 190.304 291.34 190.304V222.478C291.34 241.558 306.807 257.024 325.886 257.024H444.726C472.2 257.024 494.472 234.752 494.472 207.278V120.221Z" fill="#A0D9E3"/>
<path id="Path" d="M41.6474 128.63C64.6248 63.8969 126.21 20.3948 194.878 20.3948C238.35 20.3948 279.237 37.3837 309.989 68.2002C313.042 71.2594 316.094 74.4818 318.944 77.9285C322.546 82.2726 328.977 82.8233 333.292 79.2134C337.606 75.6035 338.176 69.1792 334.574 64.8555C331.318 60.9397 327.837 57.2278 324.357 53.7811C289.779 19.1099 243.784 0 194.878 0C117.601 0 48.3229 48.9475 22.4758 121.818C20.5831 127.121 23.79 126.162 29.0815 128.059C30.2213 128.446 31.361 128.63 32.5007 128.63C36.6932 128.63 40.1617 132.831 41.6474 128.63Z" fill="#595959"/>
<path id="Path_2" d="M82.2191 460.513H265.808C271.438 460.513 276.007 455.94 276.007 450.305V411.085C276.007 411.085 316.55 411.085 321.018 411.085C343.518 411.085 370.598 385.251 370.598 362.733L370.493 315.642C370.493 315.642 389.711 285.109 391.51 278.943C393.065 273.614 389.444 272.151 388.479 270.579L364.274 257.124C361.255 252.347 354.932 250.938 350.199 253.959C345.446 256.961 349.846 260.559 352.865 265.316L371.347 278.943C371.347 278.943 350.199 310.007 350.199 315.642V362.733C350.199 373.982 332.278 386.918 321.018 386.918C318.896 386.918 268.786 387.525 268.786 387.525C265.686 386.627 262.32 387.178 259.75 389.098C257.139 391.017 255.609 394.079 255.609 397.305V440.097H92.4185V376.276C92.4185 340.671 81.5664 306.25 61.0044 276.729C41.5032 249.229 31.2222 216.829 31.2222 182.939C31.2222 177.305 26.6529 172.731 21.0228 172.731C15.3928 172.731 10.8235 177.305 10.8235 182.939C10.8235 200.536 13.286 217.786 18.0928 234.296C23.7035 253.567 32.5079 271.832 44.3182 288.468C62.4119 314.478 72.0197 344.877 72.0197 376.276V450.305C72.0197 455.94 76.5891 460.513 82.2191 460.513Z" fill="#595959"/>
<path id="Path_3" d="M312.586 265.315H455.378C479.991 265.315 500 242.524 500 214.532V112.966C500 84.9747 479.991 62.1833 455.378 62.1833H312.586C297.825 62.1833 285.813 75.8541 285.813 92.6531V123.123C285.813 128.729 289.811 124.367 294.737 124.367C299.664 124.367 303.662 128.729 303.662 123.123V92.6531C303.662 87.0467 307.678 82.4965 312.586 82.4965H455.378C470.139 82.4965 482.151 96.1673 482.151 112.966V214.532C482.151 231.331 470.139 245.002 455.378 245.002H312.586C307.678 245.002 303.662 240.452 303.662 234.846V199.521C303.662 193.915 299.664 189.364 294.737 189.364C289.811 189.364 285.813 193.915 285.813 199.521V234.846C285.813 251.645 297.825 265.315 312.586 265.315Z" fill="#595959"/>
<path id="Shape" fill-rule="evenodd" clip-rule="evenodd" d="M314.465 200.369H40.2086C24.0078 200.369 10.8239 188.465 10.8239 173.837V138.462C10.8239 123.834 24.0078 111.93 40.2086 111.93H314.465C330.666 111.93 343.85 123.834 343.85 138.462V173.837C343.85 188.465 330.666 200.369 314.465 200.369ZM323.448 140.304C323.448 135.931 319.064 132.381 313.707 132.381H40.9672C35.6099 132.381 31.2265 135.931 31.2265 140.304V171.995C31.2265 176.368 35.6099 179.917 40.9672 179.917H313.707C319.064 179.917 323.448 176.368 323.448 171.995V140.304Z" fill="#595959"/>
<path id="Path_4" d="M428.836 265.315C434.557 265.315 439.2 260.765 439.2 255.159V72.3399C439.2 66.7334 434.557 62.1833 428.836 62.1833C423.115 62.1833 418.472 66.7334 418.472 72.3399V255.159C418.472 260.765 423.115 265.315 428.836 265.315Z" fill="#595959"/>
</g>
</svg>
