<svg width="36" height="36" viewBox="0 0 36 36" fill="none" xmlns="http://www.w3.org/2000/svg">
<path fill-rule="evenodd" clip-rule="evenodd" d="M30.3047 33.8906V23.5547C30.3047 22.3916 29.3584 21.4453 28.1953 21.4453H26.6272C26.214 19.6426 25.3914 18.0947 24.2184 16.9319C23.4801 16.2 22.6217 15.6407 21.6698 15.2645C23.7101 13.504 25.0418 10.4606 25.0418 7.71089C25.0418 5.21564 24.3477 3.25723 22.9788 1.89028C21.7405 0.653625 20.0189 0 18 0C15.9812 0 14.2595 0.653625 13.0212 1.89028C11.6523 3.25723 10.9581 5.21564 10.9581 7.71089C10.9581 10.4605 12.2898 13.504 14.3302 15.2645C13.3783 15.6407 12.5199 16.2 11.7816 16.9319C10.6086 18.0947 9.78602 19.6426 9.37287 21.4453H7.80469C6.64158 21.4453 5.69531 22.3916 5.69531 23.5547V33.8906H1.05469C0.472219 33.8906 0 34.3628 0 34.9453C0 35.5278 0.472219 36 1.05469 36H34.9453C35.5278 36 36 35.5278 36 34.9453C36 34.3628 35.5278 33.8906 34.9453 33.8906H30.3047ZM23.6418 5.69567C22.3796 5.53958 21.6588 5.1928 21.0946 4.92133C20.5416 4.65524 19.9148 4.35359 19.1499 4.52413C18.5289 4.66255 18.085 5.00323 17.6557 5.33275C16.8734 5.93325 15.7313 6.80795 12.3582 6.98507C12.7782 2.33914 16.0826 1.61194 18.1054 1.61194C19.9243 1.61194 22.779 2.19992 23.6418 5.69567ZM19.0088 6.24793C19.1478 6.13158 19.3267 5.98206 19.4374 5.91045C19.5354 5.95423 19.6799 6.02998 19.8025 6.09427C20.5193 6.4701 21.6447 7.05991 23.6418 7.23295C23.6099 9.1364 22.9422 11.2475 21.8386 12.9109C20.7125 14.6084 19.2915 15.5821 17.9401 15.5821C16.5888 15.5821 15.1678 14.6084 14.0416 12.9109C13.193 11.6317 12.601 10.0873 12.3582 8.5764C16.5013 8.34518 18.0488 7.05103 19.0088 6.24793ZM18.6141 16.0722C21.7824 16.0722 24.0936 18.0537 24.9903 21.4453H11.0202C11.9169 18.0537 14.2281 16.0722 17.3964 16.0722H18.6141Z" fill="#595959"/>
<path fill-rule="evenodd" clip-rule="evenodd" d="M7.26737 23.1444H28.7599V33.8906H7.26737V23.1444Z" fill="#A0D9E3"/>
<path fill-rule="evenodd" clip-rule="evenodd" d="M18.9474 27.4737C18.9474 26.9505 18.5232 26.5263 18 26.5263C17.4768 26.5263 17.0526 26.9505 17.0526 27.4737C17.0526 27.9969 17.4768 28.4211 18 28.4211C18.5232 28.4211 18.9474 27.9969 18.9474 27.4737Z" fill="#595959"/>
</svg>
