<svg width="43" height="37" viewBox="0 0 43 37" fill="none" xmlns="http://www.w3.org/2000/svg">
<path d="M37.5368 17.0261L37.7403 33.5887C37.7403 34.605 36.9203 35.429 35.9089 35.429H7.62365C6.61219 35.429 5.79224 34.605 5.79224 33.5887V16.6172" stroke="#595959" stroke-width="1.8"/>
<path d="M1 21.1512L21.7662 1" stroke="#595959" stroke-width="1.8" stroke-linecap="round"/>
<path d="M42 21.1512L21.7662 1" stroke="#595959" stroke-width="1.8" stroke-linecap="round"/>
<path fill-rule="evenodd" clip-rule="evenodd" d="M32.1957 20.4061C32.1957 17.5693 29.7891 15.261 26.8318 15.261C24.6613 15.261 22.7893 16.5037 21.9453 18.2854C21.1021 16.5037 19.2296 15.261 17.0601 15.261C14.1016 15.261 11.6957 17.5693 11.6957 20.4061C11.6957 21.0045 11.8028 21.5784 12 22.1133C12.2243 22.7222 12.5644 23.2784 12.9954 23.758C13.1792 23.9633 13.3789 24.1538 13.5945 24.3289L21.7763 32.1234C21.8267 32.1718 21.8922 32.1958 21.9584 32.1958C22.0253 32.1958 22.0913 32.1718 22.142 32.1234L30.6277 24.0377L30.6271 24.0367C31.177 23.508 31.6083 22.8664 31.8784 22.1503C32.0835 21.6056 32.1957 21.0181 32.1957 20.4061Z" fill="#A0D9E3" stroke="#595959" stroke-width="1.8"/>
</svg>
