<svg width="43" height="37" viewBox="0 0 43 37" fill="none" xmlns="http://www.w3.org/2000/svg">
<path fill-rule="evenodd" clip-rule="evenodd" d="M30.445 3.77818C30.6642 3.77818 30.8638 3.64244 30.9555 3.43077C31.5728 1.99854 32.9417 1 34.5254 1C35.6064 1.00115 36.5837 1.46246 37.2959 2.21136C38.0071 2.96256 38.4445 3.9933 38.4445 5.13449C38.4445 5.6142 38.3659 6.07665 38.223 6.50575C38.0594 6.99351 37.8107 7.43871 37.4977 7.82524C37.3603 7.9932 37.213 8.14735 37.057 8.28654L37.0243 8.31761L30.4341 15.2222L23.5974 8.05992C23.5952 8.05647 23.5941 8.05417 23.5941 8.05417C23.1883 7.62507 22.8731 7.10855 22.6768 6.53451C22.5263 6.09736 22.4445 5.62685 22.4445 5.13449C22.4445 3.9933 22.884 2.96256 23.5941 2.21136C24.3053 1.46246 25.2826 1.00115 26.3635 1C27.9494 1 29.3161 1.99854 29.9345 3.43077C30.0251 3.64244 30.2247 3.77818 30.445 3.77818Z" fill="#A0D9E3" stroke="#595959" stroke-width="1.8"/>
<path fill-rule="evenodd" clip-rule="evenodd" d="M2.01228 22.4291L2 22.3936C4.88999 22.3936 6.65814 20.5858 8.78462 19.0621C10.3284 17.9566 12.0597 17 14.5512 17C15.6708 17 16.6208 17.0103 17.4278 17.0344H23.3049C24.1633 17.0344 24.8599 17.7492 24.8599 18.6325C24.8599 19.5135 24.1633 20.2283 23.3049 20.2283H19.9751H17.7872C16.6732 20.4162 15.8237 21.4037 15.8237 22.5986C15.8237 23.5037 16.316 24.2838 17.0371 24.694C17.2135 24.7421 18.0574 24.9712 19.1837 25.2771C19.9092 25.4569 20.598 25.6471 21.2454 25.8384L21.3838 25.8762C23.8083 26.5338 26.4159 27.2384 26.8892 27.3529C27.2029 27.369 27.4886 27.3552 27.7409 27.2911L36.431 21.5091L38.006 20.3418V20.3441C38.0808 20.2925 38.1601 20.249 38.2416 20.2066C38.3576 20.1459 38.4771 20.0932 38.6032 20.0519C38.7037 20.0221 38.8064 20.0004 38.9113 19.9832C39.0229 19.9671 39.1357 19.9545 39.2507 19.9545C39.4069 19.9545 39.5587 19.9706 39.705 20.0015C40.9887 20.1149 42 21.209 42 22.5551C42 23.2677 41.7109 23.9046 41.2532 24.3686L41.2555 24.3709L41.2432 24.3801C41.0601 24.5611 40.8558 24.7192 40.627 24.8394L40.0287 25.2851L26.407 35.4215L26.4059 35.4192C26.3501 35.441 26.2942 35.4639 26.2384 35.4857C25.9303 35.5945 25.6077 35.6667 25.2662 35.6667C25.0641 35.6667 24.8699 35.6438 24.6813 35.6059L24.6132 35.5876C19.9985 34.3836 10.4624 31.8953 5.99844 30.7646C5.88904 30.7233 5.78523 30.6855 5.67695 30.6443C4.53837 30.3499 2.98677 30.0005 2.01228 30.0005V29.3314L2 29.3303L2.01228 28.4138V22.6318V22.4291Z" stroke="#595959" stroke-width="1.8"/>
</svg>
