<svg width="42" height="35" viewBox="0 0 42 35" fill="none" xmlns="http://www.w3.org/2000/svg">
<path fill-rule="evenodd" clip-rule="evenodd" d="M33.6531 13.1169C33.6531 8.64156 29.8198 5 25.1094 5C21.6521 5 18.6702 6.96053 17.3259 9.77124C15.9828 6.96053 13.0003 5 9.54468 5C4.83222 5 1 8.64156 1 13.1169C1 14.0609 1.17068 14.9663 1.48473 15.8102C1.84204 16.7708 2.38366 17.6481 3.0703 18.4049C3.36307 18.7286 3.68113 19.0292 4.02443 19.3055L17.0567 31.6019C17.1369 31.6783 17.2414 31.7161 17.3469 31.7161C17.4533 31.7161 17.5585 31.6783 17.6393 31.6019L31.1555 18.8461L31.1546 18.8444C32.0306 18.0104 32.7175 16.9983 33.1477 15.8685C33.4744 15.0091 33.6531 14.0823 33.6531 13.1169Z" fill="white" stroke="#595959" stroke-width="1.8"/>
<path fill-rule="evenodd" clip-rule="evenodd" d="M41 18.2317C41 14.9871 38.2209 12.3469 34.8058 12.3469C32.2993 12.3469 30.1375 13.7683 29.1628 15.8061C28.1891 13.7683 26.0268 12.3469 23.5214 12.3469C20.1049 12.3469 17.3265 14.9871 17.3265 18.2317C17.3265 18.9161 17.4503 19.5725 17.678 20.1843C17.937 20.8807 18.3297 21.5168 18.8275 22.0654C19.0398 22.3002 19.2704 22.5181 19.5192 22.7184L28.9677 31.6333C29.0258 31.6887 29.1015 31.7161 29.178 31.7161C29.2552 31.7161 29.3314 31.6887 29.39 31.6333L39.1893 22.3854L39.1886 22.3841C39.8237 21.7795 40.3217 21.0457 40.6336 20.2266C40.8705 19.6035 41 18.9316 41 18.2317Z" fill="#A0D9E3" stroke="#595959" stroke-width="1.8"/>
</svg>
