<svg width="16" height="16" viewBox="0 0 16 16" fill="none" xmlns="http://www.w3.org/2000/svg">
<path d="M15.9585 13.875C15.9585 14.0417 15.9033 14.1806 15.7927 14.2917L14.2176 15.8333C14.1071 15.9444 13.9827 16 13.8446 16C13.6788 16 13.5406 15.9444 13.4301 15.8333L8 10.375L2.56995 15.8333C2.45941 15.9444 2.33506 16 2.19689 16C2.03109 16 1.89292 15.9444 1.78238 15.8333L0.207254 14.2917C0.0967185 14.1806 0.0414508 14.0417 0.0414508 13.875C0.0414508 13.7083 0.0967185 13.5694 0.207254 13.4583L5.67876 8L0.207254 2.58333C-0.0690846 2.30556 -0.0690846 2.02778 0.207254 1.75L1.74093 0.166667C1.90674 0.0555556 2.04491 0 2.15544 0C2.32124 0 2.45941 0.0555556 2.56995 0.166667L8 5.58333L13.4301 0.166667C13.5959 0.0555556 13.734 0 13.8446 0C14.0104 0 14.1485 0.0555556 14.2591 0.166667L15.7927 1.75C16.0691 2.02778 16.0691 2.29167 15.7927 2.54167L10.3212 7.95833L15.7927 13.4583C15.9033 13.5694 15.9585 13.7083 15.9585 13.875Z" fill="#595959"/>
</svg>
