<svg width="500" height="429" viewBox="0 0 500 429" fill="none" xmlns="http://www.w3.org/2000/svg">
<g id="charity">
<path id="Shape" fill-rule="evenodd" clip-rule="evenodd" d="M356.43 19.8217C331.227 -3.92625 288.04 -9.34615 248.97 29.7231C209.959 -9.30785 166.714 -3.92625 141.511 19.8026C112.152 47.4383 111.634 93.6702 139.941 121.976L248.97 231.025L358 121.995C386.306 93.6894 385.789 47.4575 356.43 19.8217Z" fill="#595959"/>
<path id="Shape_2" fill-rule="evenodd" clip-rule="evenodd" d="M465.212 20.3596C448.34 20.3596 434.34 32.9996 432.655 49.7764L420.532 169.493C414.691 170.738 409.328 173.572 405.172 177.728L308.438 267.779C295.127 279.902 287.409 297.196 287.275 315.275V416.558C287.275 419.863 289.955 422.543 293.26 422.543H396.2C399.505 422.543 402.185 419.863 402.185 416.558V372.059C402.185 364.265 405.459 356.681 411.396 351.05L484.077 277.699C493.021 268.66 497.942 256.69 497.942 243.993V53.0896C497.942 35.0488 483.253 20.3596 465.212 20.3596ZM478.791 243.993C478.791 251.615 475.842 258.797 470.46 264.236L398.01 337.357C388.491 346.358 383.033 358.998 383.033 372.059V403.391H306.427V315.39C306.522 302.692 311.942 290.531 321.422 281.913L418.463 191.536C421.068 188.932 424.63 187.649 428.403 188.032C430.491 188.223 433.497 188.97 436.064 191.536C438.419 193.892 439.722 197.033 439.722 200.346C439.722 203.659 438.4 206.8 436.389 208.83L368.773 270.154C364.856 273.707 364.562 279.764 368.118 283.679C371.67 287.591 377.72 287.884 381.634 284.334L449.604 222.677C455.579 216.702 458.873 208.773 458.873 200.327C458.873 191.881 455.598 183.952 449.623 177.996C446.712 175.047 443.322 172.787 439.607 171.236L451.691 51.7299C452.4 44.7587 458.222 39.5112 465.212 39.5112C472.701 39.5112 478.791 45.6014 478.791 53.0896V243.993Z" fill="#595959"/>
<path id="Shape_3" fill-rule="evenodd" clip-rule="evenodd" d="M189.505 267.779L92.7703 177.728C88.6144 173.572 83.2519 170.719 77.4107 169.493L65.2878 49.7764C63.6024 32.9996 49.6026 20.3596 32.7301 20.3596C14.6893 20.3596 0 35.0488 0 53.0896V243.993C0 256.69 4.92196 268.66 13.8657 277.68L86.546 351.031C92.483 356.661 95.7579 364.265 95.7579 372.059V416.558C95.7579 419.863 98.4374 422.543 101.743 422.543H204.683C207.988 422.543 210.667 419.863 210.667 416.558V315.275C210.553 297.196 202.815 279.921 189.505 267.779ZM114.91 403.391V372.059C114.91 359.017 109.451 346.358 99.933 337.357L27.4825 264.236C22.1009 258.797 19.1516 251.615 19.1516 243.993V53.0896C19.1516 45.6014 25.2418 39.5112 32.7301 39.5112C39.7204 39.5112 45.5425 44.7587 46.2511 51.6916L58.3357 171.197C54.6203 172.768 51.2305 175.028 48.3195 177.958C42.3633 183.914 39.0692 191.843 39.0692 200.289C39.0692 208.735 42.3633 216.663 48.3386 222.639L116.308 284.295C120.222 287.845 126.272 287.552 129.825 283.641C133.38 279.725 133.087 273.669 129.169 270.116L61.5532 208.792C59.5231 206.762 58.2208 203.64 58.2208 200.308C58.2208 196.976 59.5231 193.854 61.8788 191.498C64.4259 188.932 67.4519 188.185 69.5394 187.993C73.3314 187.63 76.8745 188.894 79.4791 191.498L176.52 281.874C186 290.493 191.42 302.654 191.516 315.351V403.391H114.91Z" fill="#595959"/>
<path id="Path" d="M344.46 108.438L248.97 203.947L153.48 108.457C132.758 87.7157 133.16 53.9898 154.648 33.7657C163.803 25.1092 176.06 20.3596 189.16 20.3596C216.585 20.3596 228.918 36.7533 248.97 56.8051C268.486 37.2896 281.049 20.3596 308.78 20.3596C321.88 20.3596 334.137 25.1092 343.311 33.7465C364.741 53.9323 365.239 87.6583 344.46 108.438Z" fill="#A0D9E3"/>
</g>
</svg>
