<svg width="500" height="434" viewBox="0 0 500 434" fill="none" xmlns="http://www.w3.org/2000/svg">
<g id="health">
<path id="Shape" fill-rule="evenodd" clip-rule="evenodd" d="M367.615 0.000958547C402.307 0.000958547 433.993 14.1606 456.837 39.8717C478.777 64.5639 490.86 97.6912 490.86 133.153C490.86 224.22 401.052 301.83 278.705 407.56C269.987 415.094 261.104 422.77 252.076 430.605C250.277 432.167 248.042 432.947 245.807 432.947C243.572 432.947 241.337 432.167 239.538 430.605C230.399 422.674 221.405 414.903 212.58 407.277C90.6537 301.929 0.754123 224.252 0.754123 133.153C0.754123 60.8303 51.3862 0 123.998 0C161.934 0 196.548 14.7242 224.101 42.5825C233.682 52.2705 240.843 61.947 245.807 69.626C250.771 61.9461 257.932 52.2686 267.513 42.5825C295.065 14.7252 329.681 0.000958547 367.615 0.000958547ZM224.676 392.404C231.619 398.404 238.666 404.494 245.807 410.682C254.526 403.126 263.159 395.684 271.672 388.344C381.671 293.51 471.715 215.88 471.716 133.153C471.716 68.1728 426.963 19.1719 367.616 19.1719C334.663 19.1719 305.719 31.4269 281.588 55.5976C263.204 74.0123 254.626 92.8036 254.542 92.9915C252.994 96.4288 249.575 98.646 245.811 98.646H245.792C242.028 98.6383 238.613 96.4298 237.073 92.9915C236.989 92.8036 228.411 74.0113 210.026 55.5976C185.894 31.4279 156.95 19.1719 123.998 19.1719C64.6516 19.1719 19.8989 68.1728 19.8989 133.153C19.8989 215.446 107.304 290.977 224.676 392.404Z" fill="#595959"/>
<path id="Shape_2" d="M337.776 183.627H284.128V129.979C284.128 124.688 279.839 120.399 274.548 120.399H217.068C211.777 120.399 207.488 124.688 207.488 129.979V183.627H153.84C148.549 183.627 144.26 187.916 144.26 193.207V250.687C144.26 255.978 148.549 260.267 153.84 260.267H207.488V313.915C207.488 319.206 211.777 323.495 217.068 323.495H274.548C279.839 323.495 284.128 319.206 284.128 313.915V260.267H337.776C343.067 260.267 347.356 255.978 347.356 250.687V193.207C347.356 187.916 343.067 183.627 337.776 183.627Z" fill="#595959"/>
<path id="Path" d="M328.195 241.104H274.547C269.256 241.104 264.968 245.393 264.968 250.684V304.332H226.648V250.684C226.648 245.393 222.359 241.104 217.068 241.104H163.42V202.784H217.068C222.359 202.784 226.648 198.495 226.648 193.204V139.556H264.968V193.204C264.968 198.495 269.256 202.784 274.547 202.784H328.195V241.104Z" fill="#A0D9E3"/>
</g>
</svg>
