<svg width="500" height="630" viewBox="0 0 500 630" fill="none" xmlns="http://www.w3.org/2000/svg">
<g id="Group 2">
<path id="Combined Shape" fill-rule="evenodd" clip-rule="evenodd" d="M483.223 158.407L427.378 238.162C418.491 250.82 402.603 256.518 387.698 252.395L156.136 583.099C129.148 621.641 76.0269 631.008 37.4853 604.021C-1.05633 577.033 -10.4231 523.912 16.564 485.37L248.126 154.665C239.153 142.069 239.074 125.19 247.929 112.511L303.774 32.7556C312.864 19.8103 329.248 14.1777 344.377 18.7965C365.255 -2.15954 398.167 -5.09545 422.424 11.8343L462.302 39.7569C486.511 56.7596 495.012 88.6942 482.459 115.483C491.97 128.12 492.278 145.44 483.223 158.407ZM448.34 59.6957L408.463 31.7731C395.783 22.9185 378.904 22.9976 366.308 31.9706L462.572 99.3758C466.696 84.4703 460.998 68.5822 448.34 59.6957ZM51.4466 584.082C23.9513 564.783 17.2662 526.87 36.5028 499.332L64.4254 459.454L134.211 508.319C139.717 512.174 147.306 510.836 151.161 505.33L304.735 286.003C308.591 280.497 307.253 272.908 301.747 269.053L231.961 220.188L266.864 170.342L366.558 240.148L136.197 569.138C116.898 596.633 78.9851 603.318 51.4466 584.082ZM390.489 227.19C395.997 231.037 403.579 229.7 407.439 224.201L463.284 144.446C467.131 138.938 465.794 131.356 460.295 127.496L450.326 120.515L408.442 180.332L388.503 166.37L430.387 106.554L410.448 92.5926L368.564 152.409L348.626 138.448L390.51 78.6313L370.571 64.6701L328.687 124.486L308.748 110.525L350.632 50.7088L340.663 43.7281C335.155 39.8808 327.572 41.2178 323.712 46.7169L267.867 126.472C264.02 131.98 265.357 139.562 270.856 143.422L390.489 227.19Z" fill="#595959"/>
<path id="Path" d="M217.998 240.128L277.814 282.012L138.201 481.4L78.385 439.516L217.998 240.128Z" fill="#A0D9E3"/>
</g>
</svg>
