<svg width="500" height="432" viewBox="0 0 500 432" fill="none" xmlns="http://www.w3.org/2000/svg">
<g id="Icon/Home with Heart">
<g id="Home with Heart">
<path id="Vector" fill-rule="evenodd" clip-rule="evenodd" d="M262.471 10.1393L261.165 8.94284C254.885 3.79634 245.603 4.14086 239.725 9.99161L4.41024 244.192L3.52564 245.2C0.575789 249.056 0.856717 254.596 4.37717 258.133L5.38454 259.018C9.24136 261.967 14.7807 261.687 18.3179 258.166L56.8186 219.83L56.8259 398.434L56.8822 400.355C57.8536 416.881 71.2735 430.08 87.8247 430.08H414.339L416.234 430.022C432.531 429.021 445.337 415.201 445.337 398.434L443.228 222.955L477.609 258.075L478.609 258.968C482.441 261.95 487.983 261.714 491.549 258.223C495.439 254.415 495.505 248.173 491.697 244.283L262.471 10.1393ZM76.5345 200.205L250.978 26.5801L423.273 202.58L425.623 398.552L425.556 399.841C424.935 405.768 420.092 410.364 414.339 410.364H87.8247L86.607 410.295C81.0007 409.655 76.5411 404.645 76.5411 398.434L76.5345 200.205Z" fill="#595959"/>
<g id="Vector_2">
<path fill-rule="evenodd" clip-rule="evenodd" d="M372.706 241.123C372.706 207.536 344.926 180.207 310.788 180.207C285.733 180.207 264.122 194.92 254.379 216.014C244.646 194.92 223.031 180.207 197.987 180.207C163.835 180.207 136.062 207.536 136.062 241.123C136.062 248.208 137.299 255.003 139.575 261.336C142.164 268.545 146.09 275.13 151.066 280.809C153.188 283.239 155.493 285.495 157.981 287.568L252.429 379.851C253.01 380.424 253.767 380.708 254.532 380.708C255.303 380.708 256.065 380.424 256.651 379.851L354.606 284.12L354.599 284.107C360.948 277.848 365.926 270.252 369.044 261.774C371.412 255.324 372.706 248.368 372.706 241.123C372.706 241.123 372.706 207.536 372.706 241.123Z" fill="#A0D9E3"/>
<path d="M372.706 241.123C372.706 207.536 344.926 180.207 310.788 180.207C285.733 180.207 264.122 194.92 254.379 216.014C244.646 194.92 223.031 180.207 197.987 180.207C163.835 180.207 136.062 207.536 136.062 241.123C136.062 248.208 137.299 255.003 139.575 261.336C142.164 268.545 146.09 275.13 151.066 280.809C153.188 283.239 155.493 285.495 157.981 287.568L252.429 379.851C253.01 380.424 253.767 380.708 254.532 380.708C255.303 380.708 256.065 380.424 256.651 379.851L354.606 284.12L354.599 284.107C360.948 277.848 365.926 270.252 369.044 261.774C371.412 255.324 372.706 248.368 372.706 241.123C372.706 207.536 372.706 241.123 372.706 241.123Z" stroke="#595959" stroke-width="1.73494"/>
</g>
</g>
</g>
</svg>
