<svg width="40" height="33" viewBox="0 0 40 33" fill="none" xmlns="http://www.w3.org/2000/svg">
<path fill-rule="evenodd" clip-rule="evenodd" d="M10.9248 0C8.90457 0 7.26091 1.62829 7.26091 3.62323L7.11089 24.1215H2.56791C2.24595 24.1215 2 24.4061 2 24.7281V27.5491C2 30.19 4.11336 32.3497 6.66397 32.4681V32.502H26.2672V32.4639C26.4129 32.4699 26.5012 32.502 26.6014 32.502H26.6153C29.3356 32.4861 31.5284 30.2688 31.5142 27.5485V9.61943H37.4321C37.754 9.61943 38 9.32793 38 9.00626V3.83018C38.0037 1.7265 36.3074 0.0150873 34.2037 0H10.9248ZM3.4 27.6056V25.4H21.4922V27.5961C21.4877 28.8762 21.9944 30.1052 22.9001 31.0115C22.9963 31.1081 23.097 31.1578 23.2 31.3H7.0644C5.03743 31.3 3.4 29.6281 3.4 27.6056ZM26.4915 31.336H26.4798C24.4502 31.321 22.8144 29.628 22.8191 27.548V24.7434C22.8207 24.4177 22.5694 24.1496 22.2515 24.1382H8.64L8.78604 3.69154C8.78604 2.33882 9.87678 1.23603 11.2178 1.23603H31.2C30.5532 1.96309 30.1262 2.88298 30.1262 3.90966V27.5568C30.1262 29.626 28.5111 31.336 26.4915 31.336ZM31.6191 8.2V3.77305C31.6191 2.37141 32.785 1.2 34.1861 1.2H34.2017C35.6063 1.21395 36.7356 2.35992 36.7291 3.76484V8.2H31.6191ZM19.5237 16.405C19.7198 16.5402 19.9791 16.5402 20.1753 16.405L23.1719 14.3506C24.213 13.6403 24.9818 12.1555 24.9818 10.8964V6.73861C24.9881 6.51885 24.8668 6.31503 24.671 6.21511C22.5158 5.27889 20.8948 4.81042 19.8078 4.80971C18.7494 4.80903 17.1524 5.27541 15.0168 6.20885C14.821 6.30877 14.7 6.51259 14.7065 6.73235V10.8964C14.7065 12.1555 15.4771 13.6403 16.5179 14.35L19.5237 16.405ZM12.519 20.7C12.197 20.7 11.936 21.0151 11.936 21.4038C11.936 21.7925 12.197 22.1076 12.519 22.1076H26.5109C26.8328 22.1076 27.0939 21.7925 27.0939 21.4038C27.0939 21.0151 26.8328 20.7 26.5109 20.7H12.519ZM12.519 18.216C12.197 18.216 11.936 18.5311 11.936 18.9198C11.936 19.3085 12.197 19.6236 12.519 19.6236H26.5109C26.8328 19.6236 27.0939 19.3085 27.0939 18.9198C27.0939 18.5311 26.8328 18.216 26.5109 18.216H12.519Z" fill="#595959"/>
<path fill-rule="evenodd" clip-rule="evenodd" d="M19.8078 5.97583C20.7646 5.97648 22.1006 6.35177 23.8159 7.10169V10.8966C23.8159 11.7748 23.2403 12.8918 22.5141 13.3868L19.8374 15.2175L17.1712 13.3871C16.445 12.8915 15.8726 11.7748 15.8726 10.8966V7.09628C17.5392 6.34866 18.851 5.97518 19.8078 5.97583Z" fill="#A0D9E3"/>
<path fill-rule="evenodd" clip-rule="evenodd" d="M19.2709 11.9514H19.2723C19.4272 11.9508 19.5755 11.8888 19.6845 11.7789L22.0037 9.45888C22.2317 9.23115 22.2317 8.86165 22.0039 8.63392C21.7765 8.4059 21.407 8.4059 21.1793 8.63363L19.2743 10.5383L18.5128 9.76945C18.2859 9.54058 17.9167 9.53887 17.6878 9.76575C17.459 9.99263 17.4575 10.3618 17.6841 10.5907L18.8581 11.7766C18.9668 11.8876 19.1154 11.9506 19.2709 11.9514Z" fill="#595959"/>
</svg>
