<svg width="500" height="462" viewBox="0 0 500 462" fill="none" xmlns="http://www.w3.org/2000/svg">
<g id="vr-glasses">
<path id="Rectangle" fill-rule="evenodd" clip-rule="evenodd" d="M494.472 120.222C494.472 92.7476 472.2 70.4753 444.726 70.4753H325.887C306.807 70.4753 291.34 85.9422 291.34 105.022V124.552C291.34 124.552 332.256 120.579 332.256 132.382C332.256 136.827 332.152 173.955 323.448 185.7C316.743 194.747 291.34 190.305 291.34 190.305V222.479C291.34 241.558 306.807 257.025 325.886 257.025H444.726C472.2 257.025 494.472 234.753 494.472 207.279V120.222Z" fill="#A0D9E3"/>
<path id="Path" d="M41.6474 128.63C64.6248 63.8969 126.21 20.3948 194.878 20.3948C238.35 20.3948 279.237 37.3837 309.989 68.2002C313.042 71.2594 316.094 74.4818 318.944 77.9285C322.546 82.2726 328.977 82.8233 333.292 79.2134C337.606 75.6035 338.176 69.1792 334.574 64.8555C331.318 60.9397 327.837 57.2278 324.357 53.7811C289.779 19.1099 243.784 0 194.878 0C117.601 0 48.3229 48.9475 22.4758 121.818C20.5831 127.121 23.79 126.162 29.0815 128.059C30.2213 128.446 31.361 128.63 32.5007 128.63C36.6932 128.63 40.1617 132.831 41.6474 128.63Z" fill="#595959"/>
<path id="Path_2" d="M82.2207 460.514H265.81C271.44 460.514 276.009 455.941 276.009 450.306V411.086C276.009 411.086 316.552 411.086 321.019 411.086C343.519 411.086 370.599 385.252 370.599 362.734L370.495 315.643C370.495 315.643 389.712 285.11 391.511 278.944C393.066 273.616 389.445 272.152 388.481 270.581L364.276 257.125C361.257 252.348 354.933 250.939 350.201 253.961C345.448 256.962 349.847 260.56 352.866 265.317L371.348 278.944C371.348 278.944 350.201 310.008 350.201 315.643V362.734C350.201 373.983 332.279 386.92 321.019 386.92C318.898 386.92 268.788 387.527 268.788 387.527C265.687 386.628 262.321 387.18 259.751 389.099C257.14 391.018 255.61 394.08 255.61 397.306V440.098H92.4201V376.278C92.4201 340.673 81.5679 306.252 61.006 276.73C41.5048 249.23 31.2238 216.831 31.2238 182.94C31.2238 177.306 26.6545 172.733 21.0244 172.733C15.3944 172.733 10.825 177.306 10.825 182.94C10.825 200.538 13.2876 217.787 18.0944 234.297C23.705 253.569 32.5095 271.833 44.3198 288.469C62.4135 314.479 72.0213 344.878 72.0213 376.278V450.306C72.0213 455.941 76.5906 460.514 82.2207 460.514Z" fill="#595959"/>
<path id="Path_3" d="M312.586 265.316H455.378C479.991 265.316 500 242.525 500 214.533V112.967C500 84.9753 479.991 62.1839 455.378 62.1839H312.586C297.825 62.1839 285.813 75.8547 285.813 92.6537V123.124C285.813 128.73 289.811 124.367 294.737 124.367C299.664 124.367 303.662 128.73 303.662 123.124V92.6537C303.662 87.0472 307.678 82.4971 312.586 82.4971H455.378C470.139 82.4971 482.151 96.1679 482.151 112.967V214.533C482.151 231.332 470.139 245.003 455.378 245.003H312.586C307.678 245.003 303.662 240.453 303.662 234.846V199.522C303.662 193.915 299.664 189.365 294.737 189.365C289.811 189.365 285.813 193.915 285.813 199.522V234.846C285.813 251.645 297.825 265.316 312.586 265.316Z" fill="#595959"/>
<path id="Shape" fill-rule="evenodd" clip-rule="evenodd" d="M314.465 200.368H40.2086C24.0078 200.368 10.8239 188.464 10.8239 173.836V138.461C10.8239 123.833 24.0078 111.929 40.2086 111.929H314.465C330.666 111.929 343.85 123.833 343.85 138.461V173.836C343.85 188.464 330.666 200.368 314.465 200.368ZM323.448 140.303C323.448 135.93 319.064 132.38 313.707 132.38H40.9672C35.6099 132.38 31.2265 135.93 31.2265 140.303V171.994C31.2265 176.367 35.6099 179.916 40.9672 179.916H313.707C319.064 179.916 323.448 176.367 323.448 171.994V140.303Z" fill="#595959"/>
<path id="Path_4" d="M428.834 265.316C434.555 265.316 439.198 260.766 439.198 255.159V72.3405C439.198 66.734 434.555 62.1839 428.834 62.1839C423.113 62.1839 418.47 66.734 418.47 72.3405V255.159C418.47 260.766 423.113 265.316 428.834 265.316Z" fill="#595959"/>
</g>
</svg>
