<svg width="54" height="37" viewBox="0 0 54 37" fill="none" xmlns="http://www.w3.org/2000/svg">
<path d="M40.0164 8.45902C37.0628 3.94871 32.1701 1 26.6342 1C21.324 1 16.6057 3.7131 13.6229 7.91508" stroke="#595959" stroke-width="1.8" stroke-linecap="round"/>
<path d="M40.0164 28.541C37.0628 33.0513 32.1701 36 26.6342 36C21.324 36 16.6057 33.2869 13.6229 29.0849" stroke="#595959" stroke-width="1.8" stroke-linecap="round"/>
<path d="M9.03279 25.0972C9.03279 25.1748 4.74191 21.304 4.66408 21.304H1.14093C1.06309 21.304 1 21.2411 1 21.1635V15.1223C1 15.0447 1.06309 14.9818 1.14093 14.9818H4.66408C4.74191 14.9818 8.89186 11.2515 8.89186 11.3291" stroke="#595959" stroke-width="1.8" stroke-linecap="round" stroke-linejoin="round"/>
<path d="M9.03284 11.4684C9.03284 11.3908 9.10839 11.3279 9.20159 11.3279H11.7329C11.8261 11.3279 11.9017 11.3908 11.9017 11.4684V24.9579C11.9017 25.0355 11.8261 25.0984 11.7329 25.0984H9.20159C9.10839 25.0984 9.03284 25.0355 9.03284 24.9579" stroke="#595959" stroke-width="1.8" stroke-linecap="round" stroke-linejoin="round"/>
<path d="M44.6066 25.0972C44.6066 25.1748 48.8975 21.304 48.9753 21.304H52.4985C52.5763 21.304 52.6394 21.2411 52.6394 21.1635V15.1223C52.6394 15.0447 52.5763 14.9818 52.4985 14.9818H48.9753C48.8975 14.9818 44.7475 11.2515 44.7475 11.3291" stroke="#595959" stroke-width="1.8" stroke-linecap="round" stroke-linejoin="round"/>
<path d="M44.6066 11.4684C44.6066 11.3908 44.531 11.3279 44.4378 11.3279H41.9065C41.8133 11.3279 41.7377 11.3908 41.7377 11.4684V24.9579C41.7377 25.0355 41.8133 25.0984 41.9065 25.0984H44.4378C44.531 25.0984 44.6066 25.0355 44.6066 24.9579" stroke="#595959" stroke-width="1.8" stroke-linecap="round" stroke-linejoin="round"/>
<path d="M21.4125 20.4419C21.536 20.8126 21.6995 21.0888 21.903 21.2705C22.1138 21.4522 22.4227 21.543 22.8297 21.543C23.0332 21.543 23.2221 21.5103 23.3966 21.4449C23.5783 21.3722 23.7382 21.2777 23.8762 21.1614C24.0143 21.0379 24.1233 20.8925 24.2033 20.7254C24.2832 20.551 24.3232 20.3584 24.3232 20.1476C24.3232 19.8278 24.2542 19.5734 24.1161 19.3845C23.9853 19.1882 23.8145 19.0429 23.6037 18.9484C23.3929 18.8467 23.1604 18.7813 22.906 18.7522C22.6516 18.7231 22.4009 18.7086 22.1538 18.7086V17.7928C22.5535 17.7928 22.8806 17.7674 23.1349 17.7165C23.3893 17.6584 23.5892 17.5784 23.7345 17.4767C23.8799 17.3749 23.9816 17.2478 24.0398 17.0951C24.0979 16.9425 24.127 16.7717 24.127 16.5828C24.127 16.1685 24.0034 15.856 23.7563 15.6452C23.5092 15.4345 23.2003 15.3291 22.8297 15.3291C22.5462 15.3291 22.2882 15.4126 22.0557 15.5798C21.8304 15.7397 21.6596 15.9541 21.5433 16.223L20.4749 15.8632C20.6784 15.369 20.9873 15.0057 21.4016 14.7731C21.8231 14.5332 22.2919 14.4133 22.8079 14.4133C23.1204 14.4133 23.4184 14.4569 23.7018 14.5441C23.9925 14.6241 24.2469 14.7513 24.4649 14.9257C24.683 15.1001 24.8538 15.3218 24.9773 15.5907C25.1081 15.8523 25.1735 16.1612 25.1735 16.5173C25.1735 16.9243 25.05 17.2877 24.8029 17.6075C24.563 17.9273 24.2469 18.1453 23.8544 18.2616V18.2834C24.0943 18.327 24.3087 18.407 24.4976 18.5232C24.6866 18.6395 24.8465 18.7849 24.9773 18.9593C25.1081 19.1337 25.2062 19.33 25.2716 19.548C25.3371 19.7588 25.3698 19.9841 25.3698 20.2239C25.3698 20.5946 25.2971 20.9216 25.1517 21.2051C25.0136 21.4812 24.8247 21.7138 24.5848 21.9028C24.3523 22.0844 24.0797 22.2225 23.7672 22.317C23.462 22.4115 23.1386 22.4587 22.797 22.4587C22.2083 22.4587 21.6886 22.3243 21.238 22.0554C20.7947 21.7865 20.4858 21.3613 20.3114 20.7799L21.4125 20.4419Z" fill="#86BAC4"/>
<path d="M26.6852 14.6096H29.3779C29.923 14.6096 30.399 14.6713 30.806 14.7949C31.2203 14.9184 31.5764 15.0856 31.8744 15.2964C32.1796 15.4999 32.4304 15.7361 32.6266 16.005C32.8301 16.2739 32.99 16.5501 33.1063 16.8335C33.2225 17.1169 33.3061 17.4004 33.357 17.6838C33.4079 17.9673 33.4333 18.2289 33.4333 18.4687C33.4333 18.9629 33.3425 19.4426 33.1608 19.9078C32.9791 20.3656 32.7102 20.7763 32.3541 21.1396C31.9979 21.4958 31.5546 21.7828 31.0241 22.0009C30.5008 22.2189 29.8939 22.3279 29.2035 22.3279H26.6852V14.6096ZM27.7318 21.3468H29.0509C29.4942 21.3468 29.9121 21.2886 30.3045 21.1723C30.7043 21.0488 31.0531 20.8671 31.3511 20.6273C31.6491 20.3874 31.8853 20.0894 32.0597 19.7333C32.2341 19.3699 32.3213 18.9484 32.3213 18.4687C32.3213 18.2216 32.2814 17.9346 32.2014 17.6075C32.1215 17.2732 31.9689 16.957 31.7436 16.6591C31.5255 16.3611 31.2203 16.1104 30.8278 15.9069C30.4354 15.6961 29.9266 15.5907 29.3016 15.5907H27.7318V21.3468Z" fill="#86BAC4"/>
</svg>
