<svg width="40" height="29" viewBox="0 0 40 29" fill="none" xmlns="http://www.w3.org/2000/svg">
<path fill-rule="evenodd" clip-rule="evenodd" d="M10.6399 0.0248146C9.27285 0.166594 8.05549 0.682297 6.99244 1.56569C6.65887 1.84302 6.2536 2.2668 5.96836 2.63449C4.32702 4.75495 4.04645 7.68869 5.25446 10.0974C5.34799 10.2828 5.49918 10.557 5.55997 10.6505C5.57868 10.6801 5.57088 10.6879 5.42904 10.7736C4.07139 11.5993 2.86805 12.76 1.97023 14.1093C1.21581 15.242 0.688956 16.4385 0.353831 17.7768C0.208869 18.3502 0.115346 18.9017 0.045203 19.5639C0.0124698 19.8817 0.0109111 19.9487 0.0062349 22.44L0 24.992H4.58421H9.16686V26.6591V28.3262L20 28.3262H30.8331V26.6591V24.992H35.4158H40L39.9938 22.4322C39.9875 19.6511 39.9907 19.7618 39.8971 19.0482C39.601 16.814 38.7109 14.7294 37.3377 13.0498C36.8046 12.3986 36.125 11.7442 35.4703 11.2534C35.316 11.1381 35.1851 11.04 35.1789 11.0338C35.1726 11.0275 35.2007 10.9714 35.2412 10.9076C35.4626 10.5617 35.6808 10.1348 35.8413 9.73904C36.6269 7.78996 36.5505 5.54954 35.6325 3.67057C34.7642 1.89132 33.2383 0.613743 31.4488 0.166594C30.7178 -0.0156956 29.8558 -0.0499706 29.092 0.0715542C27.1686 0.380041 25.4587 1.67943 24.4985 3.56151C24.3816 3.79054 24.2148 4.17225 24.1587 4.33584C24.1415 4.3857 24.1228 4.42621 24.1166 4.42621C24.1119 4.42621 24.0823 4.40907 24.0527 4.38881C23.8204 4.23301 23.3279 3.97283 23.0005 3.83728C21.2704 3.11436 19.2877 3.16577 17.5871 3.9775L17.4421 4.04761L17.3564 3.86688C16.8249 2.74978 15.9567 1.75888 14.903 1.0718C14.0644 0.524937 13.1463 0.185289 12.1284 0.0466251C11.8151 0.00455856 10.9563 -0.00946236 10.6399 0.0248146ZM11.5749 1.67482C12.4509 1.70909 13.4126 2.04718 14.167 2.58626C14.937 3.13624 15.5527 3.89499 15.9315 4.75813C15.983 4.87498 16.025 4.97937 16.025 4.98872C16.025 4.99807 15.9113 5.11803 15.771 5.2567C15.1771 5.84718 14.7734 6.40651 14.4008 7.16059C13.9644 8.0471 13.7228 9.00061 13.6885 9.97748C13.6714 10.4792 13.7025 11.0214 13.7711 11.4109L13.7914 11.5308L13.7431 11.5604C13.5435 11.6835 13.1102 11.8736 12.8063 11.9717C12.281 12.14 11.8414 12.2086 11.2709 12.207C10.7035 12.2054 10.2344 12.1307 9.72467 11.9608C8.68188 11.6134 7.79964 10.9512 7.14498 10.0258C6.39991 8.97256 6.06322 7.63267 6.21442 6.31147C6.50434 3.76256 8.55874 1.78544 11.0371 1.67014C11.1696 1.66391 11.3005 1.6608 11.3255 1.66391C11.352 1.66547 11.4642 1.67014 11.5749 1.67482ZM30.3031 1.67446C31.1074 1.70873 31.9959 2.05305 32.6958 2.59836C33.2928 3.06421 33.829 3.74038 34.1547 4.43682C34.44 5.04288 34.6005 5.62247 34.6863 6.33448C34.7128 6.56039 34.7128 7.30824 34.6847 7.53415C34.5662 8.52817 34.281 9.34145 33.79 10.0815C33.0075 11.2594 31.8696 11.9994 30.5681 12.1802C30.3016 12.216 29.7747 12.216 29.5082 12.1802C28.7117 12.0695 28.0025 11.7626 27.34 11.2422L27.1826 11.1176L27.1935 10.9618C27.2995 9.53776 27.0797 8.32718 26.503 7.16023C26.238 6.62427 25.9465 6.17089 25.6098 5.77204L25.5038 5.64584L25.5568 5.44018C25.9418 3.95539 26.9067 2.72767 28.1755 2.10447C28.6213 1.88634 29 1.76793 29.4848 1.69782C29.6173 1.67913 29.9992 1.65576 30.0771 1.66355C30.1036 1.66511 30.2049 1.66978 30.3031 1.67446ZM20.9274 5.0196C21.7053 5.0866 22.5018 5.36704 23.1782 5.81264C23.9467 6.31899 24.5499 6.99205 24.963 7.8069C25.2825 8.43633 25.4696 9.07668 25.5335 9.76999C25.5553 10.0021 25.5553 10.5365 25.5335 10.7749C25.3854 12.3672 24.5437 13.8053 23.2422 14.6871C22.5688 15.1436 21.8097 15.4225 20.9664 15.5206C20.756 15.5456 20.1481 15.5456 19.9377 15.5206C19.0944 15.4225 18.3353 15.1436 17.6619 14.6871C16.3604 13.8053 15.5187 12.3672 15.3706 10.7749C15.3488 10.5365 15.3488 10.0021 15.3706 9.76999C15.5218 8.14187 16.3822 6.69915 17.7258 5.81264C18.4039 5.36548 19.1957 5.08816 19.9844 5.01805C20.3351 4.98844 20.558 4.98844 20.9274 5.0196ZM6.78802 12.1273C7.48166 12.7583 8.26725 13.2241 9.13858 13.5217C10.7721 14.0795 12.5522 13.9813 14.1125 13.2459C14.2044 13.2023 14.2839 13.1665 14.2871 13.1665C14.2917 13.1665 14.3276 13.2381 14.3697 13.327C14.4476 13.4921 14.6643 13.8878 14.7188 13.9657C14.736 13.9907 14.7453 14.0156 14.7375 14.0218C14.7297 14.0281 14.6611 14.0701 14.5832 14.1169C13.6043 14.7011 12.5896 15.5861 11.8118 16.5365C10.4121 18.2441 9.5267 20.3256 9.25237 22.5613C9.23366 22.714 9.18378 23.2562 9.18223 23.3138C9.18223 23.3201 7.48945 23.3232 5.42258 23.3216L1.66138 23.317L1.66294 21.8057C1.66294 20.2835 1.67073 20.0233 1.72528 19.5466C2.06041 16.6097 3.57237 14.0452 5.9089 12.4467C6.07724 12.3314 6.61968 11.998 6.63839 11.998C6.6415 11.998 6.70853 12.0556 6.78802 12.1273ZM34.2016 12.389C34.9093 12.8767 35.6294 13.5622 36.1921 14.2867C37.3378 15.759 38.0688 17.5959 38.2746 19.5154C38.3307 20.0342 38.3369 20.2679 38.3369 21.7979L38.3385 23.3169L34.5788 23.3216L30.8207 23.3247L30.8114 23.2359C30.8067 23.186 30.7989 23.0894 30.7942 23.0209C30.707 21.8539 30.3905 20.5483 29.9245 19.4297C29.1015 17.4541 27.7298 15.7216 26.0557 14.5375C25.9793 14.483 25.9092 14.4331 25.903 14.4269C25.8952 14.4206 25.9622 14.3054 26.0526 14.1698C26.2989 13.7974 26.4547 13.5123 26.6278 13.1197C26.687 12.9842 26.7416 12.8798 26.7509 12.8829C26.7618 12.886 26.8164 12.9172 26.8725 12.9546C27.1671 13.1431 27.6487 13.383 27.9839 13.5076C29.4818 14.0654 31.1418 13.9922 32.5587 13.3067C32.6974 13.2397 32.8814 13.1446 32.9687 13.0963C33.2742 12.925 33.7402 12.5931 33.974 12.3812C34.0177 12.3423 34.0598 12.3111 34.0691 12.3095C34.0785 12.3095 34.1377 12.3454 34.2016 12.389Z" fill="#595959"/>
<path fill-rule="evenodd" clip-rule="evenodd" d="M15.9926 15.4926C16.705 16.1252 17.4797 16.5786 18.337 16.8652C19.7118 17.328 21.1925 17.328 22.5673 16.8652C23.2921 16.6222 24.0263 16.2202 24.6186 15.7419C24.6888 15.6858 24.734 15.6593 24.7511 15.6671C24.7948 15.6827 25.2515 16.0099 25.4354 16.1548C26.0667 16.6534 26.7167 17.3233 27.1858 17.9574C27.5241 18.4139 27.7797 18.8252 28.0447 19.3441C28.6464 20.5188 28.9784 21.6624 29.128 23.0677C29.1514 23.2827 29.1561 23.5523 29.1607 24.9887L29.167 26.6589L20.0001 26.6589H10.8333L10.8395 24.9965C10.8457 23.2001 10.8457 23.2033 10.9377 22.5536C11.1466 21.0766 11.675 19.6666 12.4793 18.4404C13.201 17.3373 14.1642 16.3698 15.2257 15.6812C15.3645 15.5908 15.7947 15.3322 15.8056 15.3322C15.8087 15.3322 15.8929 15.4038 15.9926 15.4926Z" fill="#A0D9E3"/>
</svg>
