<svg width="40" height="38" viewBox="0 0 40 38" fill="none" xmlns="http://www.w3.org/2000/svg">
<path fill-rule="evenodd" clip-rule="evenodd" d="M22.181 28.6658C22.3973 28.6658 22.6117 28.5722 22.7579 28.3919C23.0147 28.0757 22.9646 27.6128 22.6462 27.3578L20.4807 25.6239C20.2084 25.3968 19.7972 25.3983 19.5263 25.6266L17.4495 27.3686C17.1371 27.6306 17.0978 28.0946 17.3616 28.4049C17.6255 28.7152 18.0926 28.7543 18.4051 28.4922L19.2644 27.7715V32.3471C18.0045 32.6556 17.0673 33.7868 17.0673 35.1318C17.0673 36.7134 18.3629 38.0001 19.9554 38.0001C21.5479 38.0001 22.8434 36.7134 22.8434 35.1318C22.8434 33.8222 21.9548 32.7156 20.7454 32.3735V27.7253L21.7167 28.5029C21.8536 28.6126 22.0178 28.6658 22.181 28.6658ZM14.6481 10.5783C14.801 10.4254 15.0188 10.34 15.2497 10.364C15.6548 10.4061 15.9467 10.7689 15.9019 11.1743L15.5966 13.9316C15.5647 14.2847 15.2729 14.5744 14.9199 14.6045L12.2197 14.8412C11.8134 14.8769 11.4575 14.5766 11.4247 14.1707C11.3919 13.7646 11.6945 13.4067 12.1008 13.371L13.218 13.2731L9.9826 10.0376C8.87362 10.7103 7.41106 10.5732 6.46002 9.62212C5.34161 8.5037 5.34788 6.67774 6.47392 5.5517C7.59997 4.42565 9.42593 4.41938 10.5443 5.5378C11.4703 6.4638 11.6245 7.87461 11.0112 8.97176L14.2979 12.2585L14.4349 11.0218C14.4542 10.8475 14.5327 10.6937 14.6481 10.5783ZM14.6481 27.4784C14.801 27.6313 15.0188 27.7167 15.2497 27.6927C15.6548 27.6506 15.9467 27.2878 15.9019 26.8824L15.5966 24.1251C15.5647 23.772 15.2729 23.4823 14.9199 23.4522L12.2197 23.2155C11.8134 23.1798 11.4575 23.4801 11.4247 23.886C11.3919 24.2921 11.6945 24.65 12.1008 24.6857L13.218 24.7836L9.9826 28.0191C8.87362 27.3464 7.41106 27.4835 6.46003 28.4346C5.34161 29.553 5.34788 31.379 6.47392 32.505C7.59997 33.6311 9.42593 33.6373 10.5443 32.5189C11.4703 31.5929 11.6245 30.1821 11.0112 29.0849L14.2979 25.7982L14.4349 27.0349C14.4542 27.2092 14.5327 27.363 14.6481 27.4784ZM25.3403 10.5783C25.1874 10.4254 24.9696 10.34 24.7387 10.364C24.3336 10.4061 24.0417 10.7689 24.0865 11.1743L24.3918 13.9316C24.4237 14.2847 24.7155 14.5744 25.0685 14.6045L27.7687 14.8412C28.175 14.8769 28.5309 14.5766 28.5637 14.1707C28.5965 13.7646 28.2939 13.4067 27.8876 13.371L26.7704 13.2731L30.0058 10.0376C31.1148 10.7103 32.5773 10.5732 33.5284 9.62212C34.6468 8.5037 34.6405 6.67774 33.5145 5.55169C32.3884 4.42565 30.5625 4.41938 29.444 5.5378C28.518 6.4638 28.3639 7.87461 28.9772 8.97176L25.6905 12.2585L25.5535 11.0218C25.5342 10.8475 25.4557 10.6937 25.3403 10.5783ZM25.3403 27.4784C25.1874 27.6313 24.9696 27.7167 24.7387 27.6927C24.3336 27.6506 24.0417 27.2878 24.0865 26.8824L24.3918 24.1251C24.4237 23.772 24.7155 23.4823 25.0685 23.4522L27.7687 23.2155C28.175 23.1798 28.5309 23.4801 28.5637 23.886C28.5965 24.2921 28.2939 24.65 27.8876 24.6857L26.7704 24.7836L30.0058 28.0191C31.1148 27.3464 32.5773 27.4835 33.5284 28.4346C34.6468 29.553 34.6405 31.379 33.5145 32.505C32.3884 33.6311 30.5625 33.6373 29.444 32.5189C28.518 31.5929 28.3639 30.1821 28.9772 29.0849L25.6905 25.7982L25.5535 27.0349C25.5342 27.2092 25.4557 27.363 25.3403 27.4784ZM22.181 9.33435C22.3973 9.33435 22.6117 9.42799 22.7579 9.60822C23.0147 9.92446 22.9646 10.3874 22.6462 10.6423L20.4807 12.3762C20.2084 12.6033 19.7972 12.6018 19.5263 12.3736L17.4495 10.6316C17.1371 10.3695 17.0978 9.90553 17.3616 9.59528C17.6255 9.28492 18.0926 9.2458 18.4051 9.50791L19.2644 10.2286V5.65305C18.0045 5.34456 17.0673 4.21336 17.0673 2.8684C17.0673 1.28672 18.3629 0 19.9554 0C21.5479 0 22.8434 1.28672 22.8434 2.8684C22.8434 4.17796 21.9548 5.28455 20.7454 5.62667V10.2748L21.7167 9.49722C21.8536 9.38759 22.0178 9.33435 22.181 9.33435ZM10.3343 17.1273C10.3343 16.9111 10.428 16.6967 10.6082 16.5504C10.9245 16.2937 11.3874 16.3438 11.6423 16.6622L13.3762 18.8277C13.6033 19.1 13.6018 19.5112 13.3736 19.7821L11.6316 21.8588C11.3695 22.1713 10.9055 22.2106 10.5953 21.9468C10.2849 21.6829 10.2458 21.2158 10.5079 20.9033L11.2286 20.044H6.65305C6.34456 21.3039 5.21336 22.241 3.8684 22.241C2.28672 22.241 1 20.9455 1 19.353C1 17.7605 2.28672 16.4649 3.8684 16.4649C5.17796 16.4649 6.28455 17.3535 6.62667 18.563H11.2748L10.4972 17.5917C10.3876 17.4547 10.3343 17.2906 10.3343 17.1273ZM29.6657 21.5001C29.6657 21.7163 29.572 21.9308 29.3918 22.077C29.0755 22.3337 28.6126 22.2836 28.3577 21.9652L26.6238 19.7997C26.3967 19.5274 26.3982 19.1163 26.6264 18.8453L28.3684 16.7686C28.6305 16.4561 29.0945 16.4168 29.4047 16.6806C29.7151 16.9445 29.7542 17.4116 29.4921 17.7241L28.7714 18.5834H33.347C33.6554 17.3236 34.7866 16.3864 36.1316 16.3864C37.7133 16.3864 39 17.682 39 19.2744C39 20.8669 37.7133 22.1625 36.1316 22.1625C34.822 22.1625 33.7155 21.2739 33.3733 20.0644H28.7252L29.5028 21.0357C29.6124 21.1727 29.6657 21.3369 29.6657 21.5001Z" fill="#595959"/>
<path fill-rule="evenodd" clip-rule="evenodd" d="M19.9555 36.5293C19.1797 36.5293 18.5485 35.9023 18.5485 35.1318C18.5485 34.3612 19.1797 33.7343 19.9555 33.7343C20.7313 33.7343 21.3625 34.3612 21.3625 35.1318C21.3625 35.9023 20.7313 36.5293 19.9555 36.5293Z" fill="#A0D9E3"/>
<path fill-rule="evenodd" clip-rule="evenodd" d="M7.51406 6.59169C6.96545 7.1403 6.96247 8.02997 7.50732 8.57482C8.05218 9.11968 8.94178 9.11662 9.49038 8.56802C10.039 8.01941 10.042 7.12981 9.49719 6.58495C8.95233 6.0401 8.06266 6.04308 7.51406 6.59169Z" fill="#A0D9E3"/>
<path fill-rule="evenodd" clip-rule="evenodd" d="M7.51406 31.465C6.96545 30.9164 6.96247 30.0267 7.50732 29.4819C8.05218 28.937 8.94178 28.9401 9.49038 29.4887C10.039 30.0373 10.042 30.9269 9.49719 31.4717C8.95233 32.0166 8.06266 32.0136 7.51406 31.465Z" fill="#A0D9E3"/>
<path fill-rule="evenodd" clip-rule="evenodd" d="M32.4743 6.59169C33.0229 7.1403 33.0259 8.02997 32.4811 8.57482C31.9362 9.11968 31.0466 9.11662 30.498 8.56802C29.9494 8.01941 29.9463 7.12981 30.4912 6.58495C31.0361 6.0401 31.9257 6.04308 32.4743 6.59169Z" fill="#A0D9E3"/>
<path fill-rule="evenodd" clip-rule="evenodd" d="M19.9555 1.47087C19.1797 1.47087 18.5485 2.09786 18.5485 2.8684C18.5485 3.63894 19.1797 4.26582 19.9555 4.26582C20.7313 4.26582 21.3625 3.63894 21.3625 2.8684C21.3625 2.09786 20.7313 1.47087 19.9555 1.47087Z" fill="#A0D9E3"/>
<path fill-rule="evenodd" clip-rule="evenodd" d="M2.47095 19.3528C2.47095 20.1287 3.09793 20.7599 3.86847 20.7599C4.63901 20.7599 5.2659 20.1287 5.2659 19.3528C5.2659 18.577 4.63901 17.9458 3.86847 17.9458C3.09793 17.9458 2.47095 18.577 2.47095 19.3528Z" fill="#A0D9E3"/>
<path fill-rule="evenodd" clip-rule="evenodd" d="M37.5291 19.2745C37.5291 18.4987 36.9021 17.8675 36.1316 17.8675C35.3611 17.8675 34.7342 18.4987 34.7342 19.2745C34.7342 20.0504 35.3611 20.6816 36.1316 20.6816C36.9021 20.6816 37.5291 20.0504 37.5291 19.2745Z" fill="#A0D9E3"/>
<path fill-rule="evenodd" clip-rule="evenodd" d="M32.4743 31.465C33.0229 30.9164 33.0258 30.0267 32.481 29.4818C31.9361 28.937 31.0465 28.94 30.4979 29.4887C29.9493 30.0373 29.9463 30.9269 30.4911 31.4717C31.036 32.0166 31.9257 32.0136 32.4743 31.465Z" fill="#A0D9E3"/>
</svg>
