<svg width="49" height="35" viewBox="0 0 49 35" fill="none" xmlns="http://www.w3.org/2000/svg">
<path d="M13.0503 28.4084H27.5668M30.8381 28.4084H35.9495" stroke="#595959" stroke-width="1.8" stroke-linecap="round"/>
<path d="M29.5 30C30.3284 30 31 29.3284 31 28.5C31 27.6716 30.3284 27 29.5 27C28.6716 27 28 27.6716 28 28.5C28 29.3284 28.6716 30 29.5 30Z" fill="white" stroke="#595959" stroke-width="1.8"/>
<path fill-rule="evenodd" clip-rule="evenodd" d="M19.4465 9.18677L30.7351 15.3686L19.4465 21.5504V9.18677Z" fill="#A0D9E3" stroke="#595959" stroke-width="1.8"/>
<path d="M42.6286 3H6.37143C3.40487 3 1 5.40487 1 8.37143V27.4541C1 30.4207 3.40487 32.8256 6.37143 32.8256H42.6286C45.5951 32.8256 48 30.4207 48 27.4541V8.37143C48 5.40487 45.5951 3 42.6286 3Z" stroke="#595959" stroke-width="1.8"/>
</svg>
