<svg width="59" height="35" viewBox="0 0 59 35" fill="none" xmlns="http://www.w3.org/2000/svg">
<path fill-rule="evenodd" clip-rule="evenodd" d="M46.0366 7.93799C47.6763 7.93799 49.1608 8.60262 50.2354 9.67718C51.31 10.7517 51.9746 12.2362 51.9746 13.876V27.0715C51.9746 28.7112 51.31 30.1957 50.2354 31.2703C49.1608 32.3448 47.6763 33.0095 46.0366 33.0095H37.2736C37.109 33.0095 36.8699 32.8321 36.629 32.6323L36.4491 32.4807C36.1288 32.2088 35.7959 31.9006 35.7409 31.6705C35.6962 31.4832 35.6523 31.2952 35.6092 31.1081L35.5225 30.7292C34.9564 28.2383 34.4354 26.0624 33.3573 24.6091C32.4778 23.4236 31.2517 22.6707 29.4088 22.6707C27.6389 22.6707 26.4388 23.3663 25.5534 24.4714C24.4715 25.8218 23.891 27.8496 23.3076 29.9772C23.2236 30.2836 23.1391 30.5919 23.0528 30.898L22.945 31.2757C22.9089 31.4003 22.8724 31.5248 22.8352 31.6489C22.7655 31.8815 22.4031 32.1922 22.052 32.4682C21.7174 32.7311 21.3553 33.0095 21.137 33.0095H12.6548C11.015 33.0095 9.53055 32.3448 8.45599 31.2703C7.38143 30.1957 6.7168 28.7112 6.7168 27.0715V13.876C6.7168 12.2362 7.38143 10.7517 8.45599 9.67718C9.53055 8.60262 11.015 7.93799 12.6548 7.93799H46.0366Z" stroke="#595959" stroke-width="1.8"/>
<path d="M4 15H1V25H4V15Z" fill="#A0D9E3" stroke="#595959" stroke-width="1.8"/>
<path d="M58 15H55V25H58V15Z" fill="#A0D9E3" stroke="#595959" stroke-width="1.8"/>
<path d="M34.8765 2H23.8147V4.6391H34.8765V2Z" fill="#A0D9E3" stroke="#595959" stroke-width="1.8"/>
</svg>
