<svg width="42" height="37" viewBox="0 0 42 37" fill="none" xmlns="http://www.w3.org/2000/svg">
<path d="M37.1249 34.1826H38.025L38.0249 34.1717L37.1249 34.1826ZM21.5405 2L22.1795 1.36618L21.5487 0.730354L20.9098 1.35793L21.5405 2ZM36.0265 17.8374L36.225 34.1936L38.0249 34.1717L37.8263 17.8156L36.0265 17.8374ZM36.2249 34.1826C36.2249 34.7038 35.8136 35.1 35.3382 35.1V36.9C36.8364 36.9 38.0249 35.6689 38.0249 34.1826H36.2249ZM35.3382 35.1H7.74284V36.9H35.3382V35.1ZM7.74284 35.1C7.26744 35.1 6.85609 34.7038 6.85609 34.1826H5.05609C5.05609 35.6689 6.24464 36.9 7.74284 36.9V35.1ZM6.85609 34.1826V17.4226H5.05609V34.1826H6.85609ZM1.91143 22.5422L22.1712 2.64207L20.9098 1.35793L0.650089 21.2581L1.91143 22.5422ZM20.9015 2.63382L40.6418 22.534L41.9197 21.2663L22.1795 1.36618L20.9015 2.63382Z" fill="#595959"/>
<path d="M21.0396 18.2533L21.8066 19.0967L22.4489 18.1549C23.7085 16.3082 25.9248 15.5745 27.8231 15.9322C28.7627 16.1093 29.5906 16.5482 30.1802 17.2155C30.7628 17.8749 31.1561 18.8057 31.1561 20.0565C31.1561 22.3209 29.6701 24.4959 27.537 26.6368C26.4877 27.69 25.3274 28.6913 24.1945 29.6569C24.0948 29.7419 23.9951 29.8267 23.8957 29.9113C23.1158 30.5751 22.3502 31.2268 21.6694 31.8556C21.0511 31.3436 20.3825 30.8141 19.7019 30.2751C19.4385 30.0665 19.1732 29.8565 18.9084 29.6455C17.71 28.6906 16.5035 27.703 15.4243 26.6793C13.216 24.5844 11.7618 22.537 11.7618 20.5383C11.7618 19.1337 12.1446 18.0999 12.7102 17.3778C13.2763 16.655 14.0702 16.1871 14.9946 15.9878C16.8609 15.5854 19.2563 16.2925 21.0396 18.2533Z" fill="#A0D9E3" stroke="#595959" stroke-width="1.8"/>
</svg>
