<svg width="500" height="500" viewBox="0 0 500 500" fill="none" xmlns="http://www.w3.org/2000/svg">
<g id="Icon/Person with Leptop">
<g id="Person with Leptop">
<path id="Person with Leptop_2" fill-rule="evenodd" clip-rule="evenodd" d="M420.898 470.703V327.148C420.898 310.994 407.756 297.852 391.602 297.852H369.822C364.083 272.814 352.658 251.315 336.366 235.165C326.112 225 314.19 217.232 300.969 212.007C329.308 187.556 347.803 145.286 347.803 107.096C347.803 72.4395 338.162 45.2393 319.149 26.2539C301.951 9.07812 278.04 0 250 0C221.961 0 198.049 9.07812 180.85 26.2539C161.837 45.2393 152.196 72.4395 152.196 107.096C152.196 145.285 170.691 187.556 199.03 212.007C185.81 217.232 173.888 225 163.634 235.165C147.342 251.315 135.917 272.814 130.179 297.852H108.398C92.2441 297.852 79.1016 310.994 79.1016 327.148V470.703H14.6484C6.55859 470.703 0 477.262 0 485.352C0 493.441 6.55859 500 14.6484 500H485.352C493.441 500 500 493.441 500 485.352C500 477.262 493.441 470.703 485.352 470.703H420.898ZM328.358 79.1065C310.827 76.9386 300.816 72.1222 292.981 68.3518C285.3 64.6562 276.595 60.4665 265.97 62.8351C257.346 64.7577 251.18 69.4893 245.218 74.0659C234.353 82.4063 218.491 94.5549 171.642 97.0149C177.475 32.4881 223.369 22.3881 251.464 22.3881C276.726 22.3881 316.375 30.5544 328.358 79.1065ZM264.011 86.7768C265.941 85.1609 268.426 83.0842 269.965 82.0895C271.324 82.6976 273.332 83.7497 275.035 84.6426C284.99 89.8624 300.621 98.0543 328.358 100.458C327.915 126.894 318.641 156.216 303.314 179.318C287.674 202.895 267.937 216.418 249.169 216.418C230.4 216.418 210.664 202.895 195.022 179.318C183.236 161.552 175.013 140.101 171.642 119.117C229.185 115.905 250.678 97.931 264.011 86.7768ZM258.529 223.225C302.534 223.225 334.633 250.746 347.088 297.852H153.058C165.512 250.746 197.612 223.225 241.616 223.225H258.529Z" fill="#595959"/>
<path id="Person with Leptop_3" fill-rule="evenodd" clip-rule="evenodd" d="M100.936 321.449H399.443V470.703H100.936V321.449Z" fill="#A0D9E3"/>
<path id="Person with Leptop_4" fill-rule="evenodd" clip-rule="evenodd" d="M263.158 381.579C263.158 374.312 257.267 368.421 250 368.421C242.733 368.421 236.842 374.312 236.842 381.579C236.842 388.846 242.733 394.737 250 394.737C257.267 394.737 263.158 388.846 263.158 381.579Z" fill="#595959"/>
</g>
</g>
</svg>
