<svg width="500" height="512" viewBox="0 0 500 512" fill="none" xmlns="http://www.w3.org/2000/svg">
<g id="home">
<path id="Shape" fill-rule="evenodd" clip-rule="evenodd" d="M477.194 419.251H433.027L434.558 241.607C439.225 243.29 442.542 246.763 447.363 246.763C461.335 246.763 475.063 239.874 483.379 227.154C489.781 217.36 492.06 205.61 489.797 194.068C487.534 182.525 480.998 172.573 471.396 166.044L269.764 28.9454C255.206 19.0449 236.391 19.0459 221.832 28.9454L173.787 61.6131V29.3783H178.588C186.542 29.3783 192.99 22.8014 192.99 14.6891C192.99 6.57681 186.542 0 178.588 0H72.9713C65.0174 0 58.5691 6.57681 58.5691 14.6891C58.5691 22.8014 65.0174 29.3783 72.9713 29.3783H77.772V126.898L20.2006 166.044C10.5981 172.573 4.06335 182.525 1.79932 194.068C-0.463752 205.61 1.81564 217.36 8.21695 227.155C19.4008 244.264 38.6735 246.856 56.8712 240.297L58.5691 419.251H14.4022C6.44836 419.251 0 425.828 0 433.94V486.7C0 494.812 6.44836 501.389 14.4022 501.389H477.194C485.148 501.389 491.596 494.812 491.596 486.7V433.94C491.596 425.828 485.148 419.251 477.194 419.251ZM100.816 21.1367H149.783V78.437L101.781 111.741L100.816 21.1367ZM32.4671 184.77L237.185 44.0699C239.611 42.4198 242.392 41.5952 245.173 41.5952C247.955 41.5952 250.736 42.4208 253.162 44.0708L458.504 185.909C461.705 188.085 473.128 200.406 465.616 211.553C458.105 222.7 446.048 219.425 439.44 214.932L253.162 93.6194C248.325 90.331 243.367 90.331 238.53 93.6194L53.5013 217.004C46.8945 221.498 34.7222 226.416 25.2759 211.86C15.8295 197.303 29.2659 186.946 32.4671 184.77ZM80.6525 224.612L245.798 112.322L410.944 224.612V419.505H80.6525V224.612ZM469.513 479.845H23.0436V442.632H469.513V479.845Z" fill="#595959"/>
<path id="Facility" fill-rule="evenodd" clip-rule="evenodd" d="M252.656 230.549C260.072 212.877 276.515 200.556 295.54 200.556C308.524 200.57 320.264 206.262 328.82 215.503C337.363 224.772 342.617 237.49 342.617 251.571C342.617 257.49 341.673 263.196 339.957 268.491C337.992 274.509 335.004 280.002 331.244 284.772C329.593 286.844 327.824 288.746 325.951 290.464L325.557 290.847L246.393 376.042L164.267 287.668C164.241 287.625 164.228 287.597 164.228 287.597C159.354 282.302 155.567 275.929 153.209 268.846C151.4 263.452 150.418 257.646 150.418 251.571C150.418 237.49 155.698 224.772 164.228 215.503C172.77 206.262 184.51 200.57 197.495 200.556C216.546 200.556 232.963 212.877 240.392 230.549C241.479 233.161 243.877 234.836 246.524 234.836C249.157 234.836 251.555 233.161 252.656 230.549Z" fill="#A0D9E3" stroke="#595959" stroke-width="1.805"/>
</g>
</svg>
