<svg width="47" height="44" viewBox="0 0 47 44" fill="none" xmlns="http://www.w3.org/2000/svg">
<path fill-rule="evenodd" clip-rule="evenodd" d="M16.1947 0.775635H29.8324C31.7578 0.775635 33.3186 2.33644 33.3186 4.26179V6.89559H12.7085V4.26179C12.7085 2.33644 14.2693 0.775635 16.1947 0.775635ZM29.9597 2.63868L29.8324 2.63378H16.1947C15.2955 2.63378 14.5666 3.36267 14.5666 4.26179V5.03744H31.4604V4.26179C31.4604 3.40548 30.7993 2.70359 29.9597 2.63868Z" fill="#595959"/>
<path fill-rule="evenodd" clip-rule="evenodd" d="M46.0275 8.5237C46.0275 6.64072 44.501 5.11426 42.6181 5.11426H3.40944C1.52646 5.11426 0 6.64072 0 8.5237V18.752C0 20.635 1.52646 22.1615 3.40944 22.1615H42.6181C44.501 22.1615 46.0275 20.635 46.0275 18.752V8.5237ZM3.40944 6.97241H42.6181L42.7453 6.97755C43.5425 7.04226 44.1694 7.70978 44.1694 8.5237V18.752L44.1642 18.8793C44.0995 19.6765 43.432 20.3033 42.6181 20.3033H3.40944L3.28221 20.2982C2.48497 20.2335 1.85815 19.566 1.85815 18.752V8.5237L1.86329 8.39647C1.92801 7.59923 2.59552 6.97241 3.40944 6.97241Z" fill="#595959"/>
<mask id="path-3-inside-1_0_109" fill="white">
<path d="M14.4902 17.0472C14.4902 16.1058 15.2535 15.3425 16.195 15.3425H29.8327C30.7742 15.3425 31.5375 16.1058 31.5375 17.0473V22.1614H14.4902V17.0472Z"/>
</mask>
<path d="M14.4902 17.0472C14.4902 16.1058 15.2535 15.3425 16.195 15.3425H29.8327C30.7742 15.3425 31.5375 16.1058 31.5375 17.0473V22.1614H14.4902V17.0472Z" fill="#A0D9E3" stroke="#595959" stroke-width="3.71629" mask="url(#path-3-inside-1_0_109)"/>
<path fill-rule="evenodd" clip-rule="evenodd" d="M31.5375 17.8996C31.5375 16.4874 30.3926 15.3425 28.9804 15.3425H17.0473C15.6351 15.3425 14.4902 16.4874 14.4902 17.8996V22.1614H31.5375V17.8996ZM17.0473 17.2007H28.9804L29.068 17.2061C29.4127 17.2493 29.6793 17.5433 29.6793 17.8996V20.3033H16.3484V17.8996L16.3538 17.8119C16.397 17.4673 16.691 17.2007 17.0473 17.2007Z" fill="#595959"/>
<mask id="path-5-inside-2_0_109" fill="white">
<rect width="13.6378" height="6.81889" rx="1.70472" transform="matrix(1 0 0 -1 16.1948 27.2756)"/>
</mask>
<rect width="13.6378" height="6.81889" rx="1.70472" transform="matrix(1 0 0 -1 16.1948 27.2756)" fill="#A0D9E3" stroke="#595959" stroke-width="3.71629" mask="url(#path-5-inside-2_0_109)"/>
<path fill-rule="evenodd" clip-rule="evenodd" d="M29.8326 24.7186V20.4568H16.1948V24.7186L16.1992 24.8688C16.2769 26.2111 17.3901 27.2757 18.7519 27.2757H27.2755L27.4258 27.2713C28.7681 27.1936 29.8326 26.0804 29.8326 24.7186ZM18.053 22.3149H27.9745V24.7186L27.969 24.8063C27.9259 25.1509 27.6318 25.4175 27.2755 25.4175H18.7519L18.6642 25.4121C18.3196 25.369 18.053 25.0749 18.053 24.7186V22.3149Z" fill="#595959"/>
<path fill-rule="evenodd" clip-rule="evenodd" d="M18.7519 40.9132V39.2085H6.81885V40.9132L6.82319 41.0635C6.90096 42.4058 8.01413 43.4703 9.37593 43.4703H16.1948L16.3451 43.466C17.6874 43.3882 18.7519 42.275 18.7519 40.9132ZM8.69489 41.0666H16.875L16.8724 41.0853C16.7957 41.3881 16.5214 41.6122 16.1948 41.6122H9.37593L9.28826 41.6067C9.00107 41.5708 8.76804 41.3606 8.69834 41.0853L8.69489 41.0666Z" fill="#595959"/>
<path fill-rule="evenodd" clip-rule="evenodd" d="M43.4705 38.3564V20.4568H2.55713V38.3564L2.56147 38.5066C2.63924 39.8489 3.75241 40.9135 5.11421 40.9135H40.9134L41.0636 40.9091C42.4059 40.8313 43.4705 39.7182 43.4705 38.3564ZM4.41528 22.3149H41.6123V38.3564L41.6069 38.444C41.5637 38.7887 41.2697 39.0553 40.9134 39.0553H5.11421L5.02654 39.0499C4.68191 39.0067 4.41528 38.7127 4.41528 38.3564V22.3149Z" fill="#595959"/>
<path fill-rule="evenodd" clip-rule="evenodd" d="M18.7519 41.7656V39.2085H6.81885V41.7656L6.82352 41.8928C6.8886 42.7749 7.62487 43.4703 8.52357 43.4703H17.0472L17.1744 43.4656C18.0565 43.4005 18.7519 42.6643 18.7519 41.7656ZM8.67699 41.0666H16.8938V41.6122H8.67699V41.0666Z" fill="#595959"/>
<path fill-rule="evenodd" clip-rule="evenodd" d="M39.2084 41.7656V39.2085H27.2754V41.7656L27.2801 41.8928C27.3451 42.7749 28.0814 43.4703 28.9801 43.4703H37.5037L37.6309 43.4656C38.513 43.4005 39.2084 42.6643 39.2084 41.7656ZM29.1335 41.0666H37.3503V41.6122H29.1335V41.0666Z" fill="#595959"/>
<path d="M23.014 23.0137C23.4847 23.0137 23.8663 23.3953 23.8663 23.866C23.8663 24.3368 23.4847 24.7184 23.014 24.7184C22.5432 24.7184 22.1616 24.3368 22.1616 23.866C22.1616 23.3953 22.5432 23.0137 23.014 23.0137Z" fill="#595959"/>
</svg>
