<svg width="500" height="470" viewBox="0 0 500 470" fill="none" xmlns="http://www.w3.org/2000/svg">
<g id="Facility 2">
<path id="Facility" fill-rule="evenodd" clip-rule="evenodd" d="M195.447 288.736C194.949 288.736 194.545 289.14 194.545 289.638V451.251H303.977V289.638C303.977 289.14 303.574 288.736 303.076 288.736H195.447Z" fill="#A0D9E3" stroke="#595959" stroke-width="1.96565"/>
<path id="Shape" fill-rule="evenodd" clip-rule="evenodd" d="M380.411 8.39047C387.994 8.39047 394.221 14.196 394.889 21.6048L394.949 22.928V52.2258C394.949 59.8086 389.143 66.0355 381.734 66.7039L380.411 66.7633L370.661 66.7583V139.888L475.598 139.896C483.181 139.896 489.407 145.702 490.076 153.11L490.135 154.433V446.742C490.135 454.325 484.33 460.552 476.921 461.22L475.598 461.28H22.928C15.3452 461.28 9.11834 455.474 8.44988 448.065L8.39047 446.742V154.433C8.39047 146.851 14.196 140.624 21.6048 139.955L22.928 139.896L127.852 139.888V66.7583L118.115 66.7633C110.532 66.7633 104.305 60.9578 103.636 53.549L103.577 52.2258V22.928C103.577 15.3452 109.383 9.11834 116.791 8.44988L118.115 8.39047H380.411ZM350.604 72.2746H147.91V441.213H350.604V72.2746ZM28.4481 159.946H125.909V441.213H28.4481V159.946ZM470.075 159.946H372.605V441.213H470.075V159.946ZM116.358 357.255C115.799 351.743 111.144 347.442 105.484 347.442H46.4201L45.3025 347.498C39.7907 348.058 35.4895 352.713 35.4895 358.373V385.424L35.5459 386.542C36.1057 392.054 40.7606 396.355 46.4201 396.355H105.484L106.602 396.299C112.114 395.739 116.415 391.084 116.415 385.424V358.373L116.358 357.255ZM450.801 347.442C456.46 347.442 461.115 351.743 461.675 357.255L461.731 358.373V385.424C461.731 391.084 457.43 395.739 451.918 396.299L450.801 396.355H391.737C386.077 396.355 381.422 392.054 380.862 386.542L380.806 385.424V358.373C380.806 352.713 385.107 348.058 390.619 347.498L391.737 347.442H450.801ZM55.5415 367.493H96.3566V376.288H55.5415V367.493ZM441.673 367.493H400.858V376.288H441.673V367.493ZM116.358 281.509C115.799 275.998 111.144 271.696 105.484 271.696H46.4201L45.3025 271.753C39.7907 272.313 35.4895 276.967 35.4895 282.627V309.679L35.5459 310.797C36.1057 316.308 40.7606 320.61 46.4201 320.61H105.484L106.602 320.553C112.114 319.993 116.415 315.338 116.415 309.679V282.627L116.358 281.509ZM450.801 271.696C456.46 271.696 461.115 275.998 461.675 281.509L461.731 282.627V309.679C461.731 315.338 457.43 319.993 451.918 320.553L450.801 320.61H391.737C386.077 320.61 381.422 316.308 380.862 310.797L380.806 309.679V282.627C380.806 276.967 385.107 272.313 390.619 271.753L391.737 271.696H450.801ZM55.5415 291.748H96.3566V300.543H55.5415V291.748ZM441.673 291.748H400.858V300.543H441.673V291.748ZM116.358 205.764C115.799 200.252 111.144 195.951 105.484 195.951H46.4201L45.3025 196.007C39.7907 196.567 35.4895 201.222 35.4895 206.881V233.933L35.5459 235.051C36.1057 240.563 40.7606 244.864 46.4201 244.864H105.484L106.602 244.808C112.114 244.248 116.415 239.593 116.415 233.933V206.881L116.358 205.764ZM450.801 195.951C456.46 195.951 461.115 200.252 461.675 205.764L461.731 206.881V233.933C461.731 239.593 457.43 244.248 451.918 244.808L450.801 244.864H391.737C386.077 244.864 381.422 240.563 380.862 235.051L380.806 233.933V206.881C380.806 201.222 385.107 196.567 390.619 196.007L391.737 195.951H450.801ZM55.5415 216.002H96.3566V224.797H55.5415V216.002ZM441.673 216.002H400.858V224.797H441.673V216.002ZM299.499 109.633C293.028 102.879 284.256 98.993 274.873 98.9831L272.99 99.0351C264.301 99.5187 256.33 103.349 250.421 109.445L249.257 110.695L248.109 109.45C241.773 102.91 233.081 98.9831 223.663 98.9831C214.267 98.993 205.493 102.881 199.044 109.622C192.671 116.315 189.051 125.256 189.051 134.757C189.051 138.892 189.735 142.935 191.062 146.761C192.747 151.651 195.471 156.119 199.03 159.854L249.197 212.041L297.767 161.528L298.557 160.807L299.55 159.802C300.171 159.151 300.718 158.531 301.246 157.891C304.025 154.484 306.159 150.647 307.558 146.506C308.823 142.737 309.475 138.778 309.475 134.757C309.475 125.248 305.861 116.305 299.499 109.633ZM274.849 119.039L273.573 119.103C268.882 119.558 264.655 122.472 262.266 126.909L261.661 128.157C259.514 133.08 254.688 136.34 249.266 136.34C244.284 136.34 239.799 133.591 237.453 129.343L236.868 128.148C234.45 122.59 229.301 119.041 223.674 119.041C219.85 119.045 216.27 120.632 213.554 123.471C210.727 126.439 209.108 130.437 209.108 134.757C209.108 136.65 209.416 138.471 210.019 140.207C210.619 141.95 211.512 143.565 212.636 144.972L213.521 145.987L249.192 183.098L283.683 147.256L284.662 146.345C285.042 145.97 285.412 145.565 285.737 145.172C286.975 143.654 287.932 141.933 288.549 140.106C289.12 138.404 289.417 136.599 289.417 134.757C289.417 130.426 287.804 126.433 285 123.493C282.602 120.99 279.559 119.462 276.274 119.116L274.849 119.039ZM123.634 28.4481H374.888V46.7007H123.634V28.4481Z" fill="#595959"/>
</g>
</svg>
