<svg width="500" height="483" viewBox="0 0 500 483" fill="none" xmlns="http://www.w3.org/2000/svg">
<g id="Group 19">
<path id="Stroke 3" fill-rule="evenodd" clip-rule="evenodd" d="M454.517 470.759H48.362C31.428 470.759 17.7088 456.613 17.7088 439.161V132.139C17.7088 114.678 31.428 100.541 48.362 100.541H454.517C471.443 100.541 485.162 114.678 485.162 132.139V439.161C485.162 456.613 471.443 470.759 454.517 470.759Z" stroke="#595959" stroke-width="2.30442" stroke-linecap="square"/>
<path id="Stroke 5" d="M181.949 100.537V44.9077C181.949 29.8747 194.294 17.6959 209.513 17.6959H293.358C308.577 17.6959 320.922 29.8747 320.922 44.9077V52.4159" stroke="#595959" stroke-width="2.30442" stroke-linecap="square"/>
<path id="Stroke 7" d="M17.7088 186.687H434.627" stroke="#595959" stroke-width="2.30442" stroke-linecap="square"/>
<path id="Stroke 9" fill-rule="evenodd" clip-rule="evenodd" d="M320.756 310.745H280.765V269.111H234.4V310.745H194.417V359.025H234.4V400.667H280.765V359.025H320.756V310.745Z" fill="#A0D9E3" stroke="#595959" stroke-width="2.30442" stroke-linecap="square"/>
<path id="Stroke 11" d="M80.8791 250.72H93.513" stroke="#595959" stroke-width="2.30442" stroke-linecap="square"/>
<path id="Stroke 13" d="M80.8791 412.547H93.513" stroke="#595959" stroke-width="2.30442" stroke-linecap="square"/>
<path id="Stroke 15" d="M421.993 250.72H434.627" stroke="#595959" stroke-width="2.30442" stroke-linecap="square"/>
<path id="Stroke 17" d="M421.993 412.547H434.627" stroke="#595959" stroke-width="2.30442" stroke-linecap="square"/>
</g>
</svg>
