<svg width="53" height="61" viewBox="0 0 53 61" fill="none" xmlns="http://www.w3.org/2000/svg">
<path fill-rule="evenodd" clip-rule="evenodd" d="M47.8909 34.4616L51.766 48.8668C52.3307 50.9652 51.8754 53.1425 50.5169 54.8422C49.2206 56.4621 47.3169 57.3745 45.2574 57.3745C45.1591 57.3745 45.0618 57.3717 44.9626 57.368L44.1002 57.2846V57.5312C44.1002 59.0844 42.8373 60.3474 41.2841 60.3474H11.7198C10.1667 60.3474 8.90371 59.0835 8.90371 57.5312V57.2438L8.11553 57.3606L8.11165 57.3611L8.11138 57.3611C8.08782 57.3637 8.065 57.3662 8.04135 57.3671C5.86689 57.458 3.84451 56.5372 2.48606 54.8403C1.1276 53.1434 0.672313 50.9662 1.23702 48.8668L5.11209 34.4626C5.84279 31.7447 7.73442 29.5258 10.302 28.3732L19.4375 24.2709C17.9251 22.1725 16.9506 19.4101 16.8273 16.3529C16.805 16.3446 16.7827 16.3362 16.7605 16.326C16.5621 16.2342 16.4165 16.0553 16.3692 15.8411C16.3052 15.5601 14.8698 8.91804 18.1329 4.57562C19.7454 2.42806 22.2091 1.23651 25.4537 1.03344C29.122 0.801624 31.9344 1.77619 33.8158 3.92097C37.4155 8.02322 36.2861 14.9398 36.1377 15.7539C36.1247 19.0392 35.1307 22.0213 33.5265 24.2533L42.701 28.3722C45.2686 29.5248 47.1593 31.7447 47.8909 34.4616ZM19.2613 5.41666C17.0498 8.35519 17.3345 12.7236 17.5885 14.6115L17.8 14.4993L21.6556 8.81419C21.8466 8.53322 22.2101 8.42659 22.5235 8.56475C24.3382 9.36591 29.5123 11.112 31.6052 9.60051C31.7276 9.51242 31.8723 9.46699 32.0178 9.46699C32.1115 9.46699 32.207 9.48553 32.296 9.52448C32.5223 9.62184 32.6818 9.83233 32.7151 10.0781C33.1111 13.0407 34.1663 14.2248 34.8673 14.6922C35.0973 12.718 35.3532 7.80253 32.755 4.84546C31.1768 3.04748 28.7464 2.2389 25.5418 2.43826C22.7284 2.61444 20.6161 3.61682 19.2613 5.41666ZM18.6123 15.6649C18.7143 15.6111 18.8023 15.5323 18.8673 15.4368L22.4975 10.0827C24.1203 10.7364 28.6027 12.3258 31.4828 11.2436C32.1783 14.6597 33.814 15.8151 34.7218 16.2008C34.5233 22.1178 30.9005 26.8496 26.4765 26.8496C21.969 26.8496 18.2951 21.9416 18.2228 15.8707L18.6123 15.6649ZM26.5015 31.4869C29.7247 31.4869 32.347 28.8665 32.3507 25.6433C30.7206 27.2753 28.6871 28.2563 26.4765 28.2563C24.2899 28.2563 22.2759 27.2994 20.655 25.7017C20.6903 28.8971 23.2978 31.4869 26.5015 31.4869ZM41.2841 58.937H11.7189C10.9428 58.937 10.3113 58.3055 10.3113 57.5294V40.3554C10.3113 39.5792 10.9428 38.9478 11.7189 38.9478H41.2831C42.0593 38.9478 42.6908 39.5792 42.6908 40.3554V57.5294C42.6917 58.3055 42.0602 58.937 41.2841 58.937ZM45.0609 55.9623C46.7429 56.0281 48.3434 55.3021 49.419 53.9594C50.4928 52.6167 50.8535 50.8938 50.4075 49.2331L46.5324 34.8279C45.9112 32.5208 44.3051 30.6357 42.126 29.6574L33.7556 25.8992C33.6183 29.7808 30.4174 32.8955 26.5024 32.8955C22.5875 32.8955 19.3865 29.7808 19.2493 25.8992L10.8788 29.6574C8.69971 30.6357 7.09275 32.5208 6.4724 34.8279L2.5964 49.2331C2.14946 50.8938 2.50924 52.6176 3.58488 53.9603C4.65309 55.2937 6.23224 56.0291 7.94584 55.9614L8.90279 55.8186V48.443H7.33477V47.0354H8.90279V40.3554C8.90279 38.8022 10.1657 37.5392 11.7189 37.5392H41.2841C42.8373 37.5392 44.1002 38.8031 44.1002 40.3554V47.0354H46.0957V48.443H44.1002V55.8686L45.0609 55.9623ZM26.5015 45.2449C24.4633 45.2449 22.8045 46.9038 22.8045 48.9419C22.8045 50.9801 24.4624 52.639 26.5015 52.639C28.5406 52.639 30.1985 50.9801 30.1985 48.9419C30.1985 46.9038 28.5396 45.2449 26.5015 45.2449ZM24.213 48.9428C24.213 50.2049 25.2395 51.2313 26.5015 51.2313C27.7635 51.2313 28.7909 50.2049 28.7909 48.9428C28.7909 47.6808 27.7635 46.6534 26.5015 46.6534C25.2395 46.6534 24.213 47.6808 24.213 48.9428Z" fill="#595959"/>
<path d="M51.766 48.8668L51.363 48.9752L51.363 48.9752L51.766 48.8668ZM47.8909 34.4616L48.2938 34.3532L48.2938 34.3531L47.8909 34.4616ZM50.5169 54.8422L50.8427 55.1029L50.8429 55.1027L50.5169 54.8422ZM44.9626 57.368L44.9224 57.7834L44.9347 57.7846L44.947 57.785L44.9626 57.368ZM44.1002 57.2846L44.1404 56.8693L43.6829 56.825V57.2846H44.1002ZM8.90371 57.2438H9.32099V56.7601L8.84253 56.831L8.90371 57.2438ZM8.11553 57.3606L8.16202 57.7753L8.16939 57.7745L8.17672 57.7734L8.11553 57.3606ZM8.11165 57.3611L8.06515 56.9463L8.05936 56.9471L8.11165 57.3611ZM8.11138 57.3611L8.15745 57.7759L8.16367 57.7751L8.11138 57.3611ZM8.04135 57.3671L8.02595 56.9501L8.02393 56.9502L8.04135 57.3671ZM2.48606 54.8403L2.16031 55.1011L2.48606 54.8403ZM1.23702 48.8668L0.834076 48.7584L0.834073 48.7584L1.23702 48.8668ZM5.11209 34.4626L5.51504 34.571L5.51506 34.5709L5.11209 34.4626ZM10.302 28.3732L10.4729 28.7538L10.473 28.7538L10.302 28.3732ZM19.4375 24.2709L19.6085 24.6516L20.0752 24.442L19.776 24.0269L19.4375 24.2709ZM16.8273 16.3529L17.2442 16.3361L17.233 16.0594L16.9738 15.9622L16.8273 16.3529ZM16.7605 16.326L16.5853 16.7047L16.5866 16.7054L16.7605 16.326ZM16.3692 15.8411L16.7767 15.7511L16.776 15.7484L16.3692 15.8411ZM18.1329 4.57562L18.4664 4.82629L18.4665 4.82617L18.1329 4.57562ZM25.4537 1.03344L25.4797 1.4499L25.48 1.44988L25.4537 1.03344ZM33.8158 3.92097L33.5021 4.19614L33.5022 4.19619L33.8158 3.92097ZM36.1377 15.7539L35.7272 15.6791L35.7206 15.7154L35.7204 15.7522L36.1377 15.7539ZM33.5265 24.2533L33.1877 24.0097L32.8895 24.4247L33.3556 24.6339L33.5265 24.2533ZM42.701 28.3722L42.53 28.7529L42.5301 28.7529L42.701 28.3722ZM17.5885 14.6115L17.175 14.6671L17.2549 15.2609L17.7842 14.9801L17.5885 14.6115ZM19.2613 5.41666L18.928 5.16572L18.9279 5.16574L19.2613 5.41666ZM17.8 14.4993L17.9956 14.8679L18.0871 14.8193L18.1453 14.7335L17.8 14.4993ZM21.6556 8.81419L21.3105 8.57958L21.3102 8.57998L21.6556 8.81419ZM22.5235 8.56475L22.692 8.18302L22.6918 8.18293L22.5235 8.56475ZM31.6052 9.60051L31.3615 9.26183L31.3609 9.26224L31.6052 9.60051ZM32.296 9.52448L32.1288 9.90677L32.1311 9.90777L32.296 9.52448ZM32.7151 10.0781L33.1287 10.0228L33.1286 10.0219L32.7151 10.0781ZM34.8673 14.6922L34.6359 15.0394L35.203 15.4174L35.2818 14.7404L34.8673 14.6922ZM32.755 4.84546L32.4414 5.12073L32.4416 5.12088L32.755 4.84546ZM25.5418 2.43826L25.5159 2.02179L25.5157 2.0218L25.5418 2.43826ZM18.8673 15.4368L19.2124 15.6713L19.2126 15.6709L18.8673 15.4368ZM18.6123 15.6649L18.4176 15.2958L18.4173 15.296L18.6123 15.6649ZM22.4975 10.0827L22.6535 9.69565L22.3411 9.56983L22.1522 9.84852L22.4975 10.0827ZM31.4828 11.2436L31.8917 11.1604L31.7941 10.6809L31.336 10.853L31.4828 11.2436ZM34.7218 16.2008L35.1388 16.2148L35.1484 15.9287L34.885 15.8168L34.7218 16.2008ZM18.2228 15.8707L18.0278 15.5018L17.8025 15.6209L17.8056 15.8757L18.2228 15.8707ZM32.3507 25.6433L32.768 25.6437L32.7692 24.6339L32.0555 25.3484L32.3507 25.6433ZM20.655 25.7017L20.948 25.4045L20.2266 24.6935L20.2378 25.7063L20.655 25.7017ZM42.6908 57.5294H42.2735L42.2735 57.5299L42.6908 57.5294ZM49.419 53.9594L49.7447 54.2203L49.7449 54.22L49.419 53.9594ZM45.0609 55.9623L45.0204 56.3776L45.0324 56.3788L45.0445 56.3792L45.0609 55.9623ZM50.4075 49.2331L50.8105 49.1248L50.8105 49.1247L50.4075 49.2331ZM46.5324 34.8279L46.9354 34.7195L46.9354 34.7194L46.5324 34.8279ZM42.126 29.6574L41.9551 30.0381L41.9551 30.0381L42.126 29.6574ZM33.7556 25.8992L33.9265 25.5185L33.3605 25.2644L33.3385 25.8844L33.7556 25.8992ZM19.2493 25.8992L19.6663 25.8844L19.6444 25.2644L19.0784 25.5185L19.2493 25.8992ZM10.8788 29.6574L11.0497 30.0381L11.0497 30.0381L10.8788 29.6574ZM6.4724 34.8279L6.87535 34.9363L6.87536 34.9362L6.4724 34.8279ZM2.5964 49.2331L2.99934 49.3415L2.99934 49.3415L2.5964 49.2331ZM3.58488 53.9603L3.25922 54.2212H3.25922L3.58488 53.9603ZM7.94584 55.9614L7.96231 56.3783L7.98498 56.3774L8.00743 56.3741L7.94584 55.9614ZM8.90279 55.8186L8.96437 56.2313L9.32006 56.1782V55.8186H8.90279ZM8.90279 48.443H9.32006V48.0258H8.90279V48.443ZM7.33477 48.443H6.91749V48.8603H7.33477V48.443ZM7.33477 47.0354V46.6182H6.91749V47.0354H7.33477ZM8.90279 47.0354V47.4527H9.32006V47.0354H8.90279ZM44.1002 47.0354H43.6829V47.4527H44.1002V47.0354ZM46.0957 47.0354H46.513V46.6182H46.0957V47.0354ZM46.0957 48.443V48.8603H46.513V48.443H46.0957ZM44.1002 48.443V48.0258H43.6829V48.443H44.1002ZM44.1002 55.8686H43.6829V56.2472L44.0597 56.2839L44.1002 55.8686ZM52.1689 48.7584L48.2938 34.3532L47.4879 34.57L51.363 48.9752L52.1689 48.7584ZM50.8429 55.1027C52.2841 53.2994 52.7682 50.9853 52.1689 48.7584L51.363 48.9752C51.8932 50.9452 51.4667 52.9855 50.191 54.5816L50.8429 55.1027ZM45.2574 57.7918C47.4438 57.7918 49.4673 56.8216 50.8427 55.1029L50.1911 54.5814C48.9739 56.1026 47.19 56.9573 45.2574 56.9573V57.7918ZM44.947 57.785C45.0483 57.7888 45.1516 57.7918 45.2574 57.7918V56.9573C45.1667 56.9573 45.0753 56.9547 44.9781 56.9511L44.947 57.785ZM44.06 57.6999L44.9224 57.7834L45.0028 56.9527L44.1404 56.8693L44.06 57.6999ZM44.5175 57.5312V57.2846H43.6829V57.5312H44.5175ZM41.2841 60.7646C43.0677 60.7646 44.5175 59.3149 44.5175 57.5312H43.6829C43.6829 58.854 42.6068 59.9301 41.2841 59.9301V60.7646ZM11.7198 60.7646H41.2841V59.9301H11.7198V60.7646ZM8.48644 57.5312C8.48644 59.3139 9.93612 60.7646 11.7198 60.7646V59.9301C10.3972 59.9301 9.32099 58.8531 9.32099 57.5312H8.48644ZM8.48644 57.2438V57.5312H9.32099V57.2438H8.48644ZM8.17672 57.7734L8.9649 57.6565L8.84253 56.831L8.05435 56.9479L8.17672 57.7734ZM8.15815 57.7757L8.16202 57.7753L8.06904 56.9459L8.06516 56.9464L8.15815 57.7757ZM8.16367 57.7751L8.16395 57.775L8.05936 56.9471L8.05909 56.9471L8.16367 57.7751ZM8.05675 57.7841C8.09825 57.7826 8.13619 57.7782 8.15745 57.7758L8.06531 56.9464C8.03946 56.9492 8.03175 56.9499 8.02595 56.9501L8.05675 57.7841ZM2.16031 55.1011C3.60178 56.9017 5.7516 57.8804 8.05877 57.784L8.02393 56.9502C5.98219 57.0355 4.08724 56.1727 2.81181 54.5795L2.16031 55.1011ZM0.834073 48.7584C0.234847 50.9861 0.718797 53.3004 2.16031 55.1011L2.81181 54.5795C1.53641 52.9864 1.10978 50.9462 1.63997 48.9752L0.834073 48.7584ZM4.70915 34.3541L0.834076 48.7584L1.63997 48.9752L5.51504 34.571L4.70915 34.3541ZM10.1312 27.9925C7.44926 29.1964 5.47238 31.5153 4.70913 34.3542L5.51506 34.5709C6.21319 31.9741 8.01958 29.8551 10.4729 28.7538L10.1312 27.9925ZM19.2666 23.8902L10.1311 27.9925L10.473 28.7538L19.6085 24.6516L19.2666 23.8902ZM16.4103 16.3697C16.5367 19.5037 17.5359 22.3461 19.099 24.5149L19.776 24.0269C18.3144 21.9989 17.3644 19.3166 17.2442 16.3361L16.4103 16.3697ZM16.5866 16.7054C16.6245 16.7227 16.6605 16.736 16.6807 16.7436L16.9738 15.9622C16.9495 15.9531 16.941 15.9497 16.9343 15.9467L16.5866 16.7054ZM15.9617 15.931C16.0375 16.274 16.2701 16.5589 16.5853 16.7047L16.9357 15.9473C16.854 15.9095 16.7955 15.8365 16.7766 15.7511L15.9617 15.931ZM17.7993 4.32495C16.0915 6.59764 15.6279 9.44704 15.5862 11.7237C15.5443 14.0077 15.926 15.7743 15.9623 15.9337L16.776 15.7484C16.7484 15.6268 16.3804 13.9319 16.4206 11.739C16.4609 9.53886 16.9112 6.89603 18.4664 4.82629L17.7993 4.32495ZM25.4276 0.616984C22.0894 0.82592 19.5004 2.05933 17.7992 4.32508L18.4665 4.82617C19.9903 2.79679 22.3289 1.64711 25.4797 1.4499L25.4276 0.616984ZM34.1295 3.6458C32.1394 1.3771 29.1847 0.379556 25.4274 0.617L25.48 1.44988C29.0593 1.22369 31.7294 2.17527 33.5021 4.19614L34.1295 3.6458ZM36.5482 15.8287C36.6255 15.4045 36.9508 13.4348 36.7987 11.044C36.6472 8.6613 36.0177 5.7976 34.1295 3.64575L33.5022 4.19619C35.2136 6.14659 35.8193 8.79228 35.9659 11.097C36.1119 13.3935 35.7983 15.2891 35.7272 15.6791L36.5482 15.8287ZM33.8653 24.4968C35.5233 22.19 36.5417 19.1222 36.555 15.7555L35.7204 15.7522C35.7078 18.9563 34.7381 21.8527 33.1877 24.0097L33.8653 24.4968ZM42.8719 27.9916L33.6974 23.8726L33.3556 24.6339L42.53 28.7529L42.8719 27.9916ZM48.2938 34.3531C47.5297 31.5154 45.5539 29.1955 42.8718 27.9915L42.5301 28.7529C44.9833 29.8541 46.7889 31.974 47.488 34.5701L48.2938 34.3531ZM18.0021 14.5558C17.8776 13.6306 17.7464 12.1018 17.9154 10.4505C18.0848 8.79551 18.5521 7.05295 19.5947 5.66758L18.9279 5.16574C17.759 6.7189 17.2629 8.62979 17.0852 10.3656C16.9072 12.1051 17.0455 13.7045 17.175 14.6671L18.0021 14.5558ZM17.6044 14.1307L17.3929 14.2429L17.7842 14.9801L17.9956 14.8679L17.6044 14.1307ZM21.3102 8.57998L17.4546 14.2651L18.1453 14.7335L22.0009 9.0484L21.3102 8.57998ZM22.6918 8.18293C22.1927 7.9629 21.6138 8.13345 21.3105 8.57958L22.0006 9.04879C22.0794 8.933 22.2275 8.89027 22.3552 8.94657L22.6918 8.18293ZM31.3609 9.26224C30.9312 9.57259 30.3086 9.73755 29.5397 9.77213C28.7768 9.80646 27.9125 9.71057 27.0399 9.54032C25.2946 9.19973 23.5773 8.57387 22.692 8.18302L22.355 8.94648C23.2844 9.3568 25.0615 10.0045 26.8801 10.3594C27.7896 10.5369 28.7247 10.6442 29.5772 10.6058C30.4238 10.5677 31.2328 10.3842 31.8495 9.93879L31.3609 9.26224ZM32.0178 9.04972C31.7855 9.04972 31.5554 9.12224 31.3615 9.26183L31.8489 9.93919C31.8998 9.90261 31.959 9.88426 32.0178 9.88426V9.04972ZM32.4633 9.14219C32.3187 9.07894 32.1659 9.04972 32.0178 9.04972V9.88426C32.0571 9.88426 32.0953 9.89213 32.1288 9.90677L32.4633 9.14219ZM33.1286 10.0219C33.0757 9.63207 32.8226 9.29683 32.461 9.14119L32.1311 9.90777C32.2219 9.94685 32.2879 10.0326 32.3017 10.1342L33.1286 10.0219ZM35.0988 14.345C34.5228 13.961 33.5133 12.9001 33.1287 10.0228L32.3016 10.1333C32.7089 13.1813 33.8099 14.4887 34.6359 15.0394L35.0988 14.345ZM32.4416 5.12088C33.6628 6.51074 34.2307 8.38438 34.4577 10.1895C34.6841 11.9891 34.5657 13.6751 34.4529 14.6439L35.2818 14.7404C35.3989 13.7351 35.5236 11.9762 35.2858 10.0853C35.0487 8.19988 34.4455 6.13725 33.0685 4.57004L32.4416 5.12088ZM25.5677 2.85473C28.6914 2.6604 30.9758 3.45098 32.4414 5.12073L33.0686 4.57019C31.3778 2.64398 28.8015 1.81739 25.5159 2.02179L25.5677 2.85473ZM19.5947 5.6676C20.8584 3.98882 22.8432 3.02534 25.5678 2.85472L25.5157 2.0218C22.6136 2.20354 20.3738 3.24482 18.928 5.16572L19.5947 5.6676ZM18.5221 15.2022C18.4955 15.2414 18.4591 15.2739 18.4176 15.2958L18.8069 16.034C18.9694 15.9483 19.1092 15.8232 19.2124 15.6713L18.5221 15.2022ZM22.1522 9.84852L18.5219 15.2026L19.2126 15.6709L22.8429 10.3169L22.1522 9.84852ZM31.336 10.853C30.0096 11.3514 28.2656 11.245 26.6021 10.9053C24.9533 10.5686 23.4531 10.0178 22.6535 9.69565L22.3416 10.4697C23.1647 10.8013 24.7171 11.3721 26.4352 11.7229C28.1386 12.0708 30.0759 12.218 31.6296 11.6343L31.336 10.853ZM34.885 15.8168C34.1103 15.4876 32.5612 14.4492 31.8917 11.1604L31.0739 11.3269C31.7953 14.8703 33.5177 16.1426 34.5586 16.5849L34.885 15.8168ZM26.4765 27.2669C28.8474 27.2669 30.9716 25.998 32.5141 23.999C34.0564 22.0002 35.037 19.2514 35.1388 16.2148L34.3047 16.1869C34.2081 19.0672 33.278 21.6429 31.8533 23.4892C30.4288 25.3353 28.5296 26.4324 26.4765 26.4324V27.2669ZM17.8056 15.8757C17.8427 18.9907 18.8034 21.8236 20.3528 23.8873C21.902 25.9509 24.0607 27.2669 26.4765 27.2669V26.4324C24.3847 26.4324 22.4527 25.2944 21.0201 23.3862C19.5876 21.4782 18.6753 18.8216 18.64 15.8658L17.8056 15.8757ZM18.4173 15.296L18.0278 15.5018L18.4178 16.2396L18.8073 16.0338L18.4173 15.296ZM31.9335 25.6428C31.93 28.6358 29.4943 31.0697 26.5015 31.0697V31.9042C29.9551 31.9042 32.764 29.0971 32.768 25.6437L31.9335 25.6428ZM26.4765 28.6736C28.8172 28.6736 30.9524 27.6336 32.646 25.9381L32.0555 25.3484C30.4887 26.9169 28.5569 27.839 26.4765 27.839V28.6736ZM20.3621 25.9989C22.0467 27.6594 24.1617 28.6736 26.4765 28.6736V27.839C24.4182 27.839 22.5051 26.9394 20.948 25.4045L20.3621 25.9989ZM26.5015 31.0697C23.5271 31.0697 21.105 28.6645 21.0723 25.6971L20.2378 25.7063C20.2755 29.1297 23.0685 31.9042 26.5015 31.9042V31.0697ZM11.7189 59.3543H41.2841V58.5197H11.7189V59.3543ZM9.89404 57.5294C9.89404 58.536 10.7123 59.3543 11.7189 59.3543V58.5197C11.1732 58.5197 10.7286 58.0751 10.7286 57.5294H9.89404ZM9.89404 40.3554V57.5294H10.7286V40.3554H9.89404ZM11.7189 38.5305C10.7123 38.5305 9.89404 39.3488 9.89404 40.3554H10.7286C10.7286 39.8097 11.1732 39.365 11.7189 39.365V38.5305ZM41.2831 38.5305H11.7189V39.365H41.2831V38.5305ZM43.108 40.3554C43.108 39.3488 42.2897 38.5305 41.2831 38.5305V39.365C41.8288 39.365 42.2735 39.8097 42.2735 40.3554H43.108ZM43.108 57.5294V40.3554H42.2735V57.5294H43.108ZM41.2841 59.3543C42.2906 59.3543 43.1092 58.536 43.108 57.5289L42.2735 57.5299C42.2741 58.0751 41.8298 58.5197 41.2841 58.5197V59.3543ZM49.0934 53.6985C48.1 54.9385 46.6261 55.606 45.0772 55.5453L45.0445 56.3792C46.8597 56.4503 48.5868 55.6656 49.7447 54.2203L49.0934 53.6985ZM50.0045 49.3413C50.4161 50.8738 50.0841 52.4597 49.0932 53.6988L49.7449 54.22C50.9016 52.7737 51.291 50.9139 50.8105 49.1248L50.0045 49.3413ZM46.1295 34.9363L50.0046 49.3415L50.8105 49.1247L46.9354 34.7195L46.1295 34.9363ZM41.9551 30.0381C44.0199 30.965 45.5408 32.7502 46.1295 34.9364L46.9354 34.7194C46.2815 32.2915 44.5904 30.3064 42.2969 29.2768L41.9551 30.0381ZM33.5846 26.2799L41.9551 30.0381L42.297 29.2768L33.9265 25.5185L33.5846 26.2799ZM26.5024 33.3127C30.6428 33.3127 34.0274 30.0193 34.1726 25.9139L33.3385 25.8844C33.2092 29.5422 30.1919 32.4782 26.5024 32.4782V33.3127ZM18.8323 25.9139C18.9774 30.0193 22.362 33.3127 26.5024 33.3127V32.4782C22.813 32.4782 19.7956 29.5422 19.6663 25.8844L18.8323 25.9139ZM11.0497 30.0381L19.4202 26.2799L19.0784 25.5185L10.7079 29.2768L11.0497 30.0381ZM6.87536 34.9362C7.46316 32.7502 8.98489 30.9651 11.0497 30.0381L10.7079 29.2768C8.41453 30.3063 6.72234 32.2914 6.06944 34.7195L6.87536 34.9362ZM2.99934 49.3415L6.87535 34.9363L6.06946 34.7195L2.19346 49.1247L2.99934 49.3415ZM3.91054 53.6994C2.91812 52.4606 2.58691 50.874 2.99934 49.3415L2.19347 49.1246C1.71201 50.9136 2.10036 52.7746 3.25922 54.2212L3.91054 53.6994ZM7.92937 55.5444C6.35044 55.6068 4.8974 54.9313 3.91054 53.6994L3.25922 54.2212C4.40879 55.6562 6.11404 56.4513 7.96231 56.3783L7.92937 55.5444ZM8.8412 55.4059L7.88425 55.5487L8.00743 56.3741L8.96437 56.2313L8.8412 55.4059ZM8.48551 48.443V55.8186H9.32006V48.443H8.48551ZM7.33477 48.8603H8.90279V48.0258H7.33477V48.8603ZM6.91749 47.0354V48.443H7.75204V47.0354H6.91749ZM8.90279 46.6182H7.33477V47.4527H8.90279V46.6182ZM8.48551 40.3554V47.0354H9.32006V40.3554H8.48551ZM11.7189 37.122C9.93528 37.122 8.48551 38.5717 8.48551 40.3554H9.32006C9.32006 39.0326 10.3962 37.9565 11.7189 37.9565V37.122ZM41.2841 37.122H11.7189V37.9565H41.2841V37.122ZM44.5175 40.3554C44.5175 38.5728 43.0678 37.122 41.2841 37.122V37.9565C42.6067 37.9565 43.6829 39.0335 43.6829 40.3554H44.5175ZM44.5175 47.0354V40.3554H43.6829V47.0354H44.5175ZM46.0957 46.6182H44.1002V47.4527H46.0957V46.6182ZM46.513 48.443V47.0354H45.6784V48.443H46.513ZM44.1002 48.8603H46.0957V48.0258H44.1002V48.8603ZM44.5175 55.8686V48.443H43.6829V55.8686H44.5175ZM45.1013 55.547L44.1407 55.4533L44.0597 56.2839L45.0204 56.3776L45.1013 55.547ZM23.2217 48.9419C23.2217 47.1342 24.6938 45.6622 26.5015 45.6622V44.8276C24.2329 44.8276 22.3872 46.6733 22.3872 48.9419H23.2217ZM26.5015 52.2217C24.6929 52.2217 23.2217 50.7497 23.2217 48.9419H22.3872C22.3872 51.2104 24.2319 53.0562 26.5015 53.0562V52.2217ZM29.7813 48.9419C29.7813 50.7497 28.31 52.2217 26.5015 52.2217V53.0562C28.7711 53.0562 30.6158 51.2104 30.6158 48.9419H29.7813ZM26.5015 45.6622C28.3092 45.6622 29.7813 47.1342 29.7813 48.9419H30.6158C30.6158 46.6733 28.7701 44.8276 26.5015 44.8276V45.6622ZM26.5015 50.8141C25.4699 50.8141 24.6303 49.9744 24.6303 48.9428H23.7957C23.7957 50.4353 25.009 51.6486 26.5015 51.6486V50.8141ZM28.3737 48.9428C28.3737 49.9742 27.5333 50.8141 26.5015 50.8141V51.6486C27.9937 51.6486 29.2082 50.4355 29.2082 48.9428H28.3737ZM26.5015 47.0707C27.5331 47.0707 28.3737 47.9113 28.3737 48.9428H29.2082C29.2082 47.4504 27.994 46.2361 26.5015 46.2361V47.0707ZM24.6303 48.9428C24.6303 47.9111 25.4701 47.0707 26.5015 47.0707V46.2361C25.0088 46.2361 23.7957 47.4506 23.7957 48.9428H24.6303Z" fill="#595959"/>
<path d="M32.5601 48.5106L26.9633 54.7818L21.3665 48.5119C20.1519 47.15 20.1755 44.9355 21.435 43.6076C21.9715 43.0392 22.6899 42.7273 23.4577 42.7273C25.0651 42.7273 25.788 43.8037 26.9633 45.1203C28.1071 43.8389 28.8435 42.7273 30.4688 42.7273C31.2366 42.7273 31.955 43.0392 32.4927 43.6063C33.7488 44.9317 33.778 47.1462 32.5601 48.5106Z" fill="#A0D9E3" stroke="#595959" stroke-width="2.02145"/>
</svg>
